Mister Pixel Tools.ufo
<glyph name="exclam" format="1">
  <advance width="3751"/>
  <unicode hex="0021"/>
  <outline>
    <contour>
      <point x="3631" y="188" type="line"/>
      <point x="3631" y="381" type="line"/>
      <point x="3568" y="381" type="line"/>
      <point x="3568" y="443" type="line"/>
      <point x="3506" y="443" type="line"/>
      <point x="3506" y="506" type="line"/>
      <point x="3381" y="506" type="line"/>
      <point x="3381" y="568" type="line"/>
      <point x="250" y="568" type="line"/>
      <point x="250" y="506" type="line"/>
      <point x="125" y="506" type="line"/>
      <point x="125" y="443" type="line"/>
      <point x="63" y="443" type="line"/>
      <point x="63" y="381" type="line"/>
      <point x="0" y="381" type="line"/>
      <point x="0" y="188" type="line"/>
      <point x="63" y="188" type="line"/>
      <point x="63" y="125" type="line"/>
      <point x="125" y="125" type="line"/>
      <point x="125" y="63" type="line"/>
      <point x="250" y="63" type="line"/>
      <point x="250" y="0" type="line"/>
      <point x="3381" y="0" type="line"/>
      <point x="3381" y="63" type="line"/>
      <point x="3506" y="63" type="line"/>
      <point x="3506" y="125" type="line"/>
      <point x="3568" y="125" type="line"/>
      <point x="3568" y="188" type="line"/>
    </contour>
    <contour>
      <point x="3563" y="193" type="line"/>
      <point x="3500" y="193" type="line"/>
      <point x="3500" y="131" type="line"/>
      <point x="3375" y="131" type="line"/>
      <point x="3375" y="68" type="line"/>
      <point x="256" y="68" type="line"/>
      <point x="256" y="131" type="line"/>
      <point x="131" y="131" type="line"/>
      <point x="131" y="193" type="line"/>
      <point x="68" y="193" type="line"/>
      <point x="68" y="375" type="line"/>
      <point x="131" y="375" type="line"/>
      <point x="131" y="438" type="line"/>
      <point x="256" y="438" type="line"/>
      <point x="256" y="500" type="line"/>
      <point x="3375" y="500" type="line"/>
      <point x="3375" y="438" type="line"/>
      <point x="3500" y="438" type="line"/>
      <point x="3500" y="375" type="line"/>
      <point x="3563" y="375" type="line"/>
    </contour>
    <contour>
      <point x="3506" y="250" type="line"/>
      <point x="3506" y="318" type="line"/>
      <point x="3438" y="318" type="line"/>
      <point x="3438" y="250" type="line"/>
    </contour>
    <contour>
      <point x="3318" y="125" type="line"/>
      <point x="3318" y="193" type="line"/>
      <point x="3256" y="193" type="line"/>
      <point x="3256" y="250" type="line"/>
      <point x="3318" y="250" type="line"/>
      <point x="3318" y="381" type="line"/>
      <point x="3256" y="381" type="line"/>
      <point x="3256" y="443" type="line"/>
      <point x="3063" y="443" type="line"/>
      <point x="3063" y="125" type="line"/>
      <point x="3131" y="125" type="line"/>
      <point x="3131" y="188" type="line"/>
      <point x="3250" y="188" type="line"/>
      <point x="3250" y="125" type="line"/>
    </contour>
    <contour>
      <point x="3250" y="256" type="line"/>
      <point x="3131" y="256" type="line"/>
      <point x="3131" y="375" type="line"/>
      <point x="3250" y="375" type="line"/>
    </contour>
    <contour>
      <point x="3006" y="125" type="line"/>
      <point x="3006" y="193" type="line"/>
      <point x="2881" y="193" type="line"/>
      <point x="2881" y="250" type="line"/>
      <point x="2943" y="250" type="line"/>
      <point x="2943" y="318" type="line"/>
      <point x="2881" y="318" type="line"/>
      <point x="2881" y="375" type="line"/>
      <point x="3006" y="375" type="line"/>
      <point x="3006" y="443" type="line"/>
      <point x="2813" y="443" type="line"/>
      <point x="2813" y="125" type="line"/>
    </contour>
    <contour>
      <point x="2756" y="125" type="line"/>
      <point x="2756" y="318" type="line"/>
      <point x="2625" y="318" type="line"/>
      <point x="2625" y="250" type="line"/>
      <point x="2688" y="250" type="line"/>
      <point x="2688" y="193" type="line"/>
      <point x="2568" y="193" type="line"/>
      <point x="2568" y="375" type="line"/>
      <point x="2756" y="375" type="line"/>
      <point x="2756" y="443" type="line"/>
      <point x="2563" y="443" type="line"/>
      <point x="2563" y="381" type="line"/>
      <point x="2500" y="381" type="line"/>
      <point x="2500" y="188" type="line"/>
      <point x="2563" y="188" type="line"/>
      <point x="2563" y="125" type="line"/>
    </contour>
    <contour>
      <point x="2443" y="125" type="line"/>
      <point x="2443" y="193" type="line"/>
      <point x="2381" y="193" type="line"/>
      <point x="2381" y="250" type="line"/>
      <point x="2443" y="250" type="line"/>
      <point x="2443" y="381" type="line"/>
      <point x="2381" y="381" type="line"/>
      <point x="2381" y="443" type="line"/>
      <point x="2188" y="443" type="line"/>
      <point x="2188" y="125" type="line"/>
      <point x="2256" y="125" type="line"/>
      <point x="2256" y="188" type="line"/>
      <point x="2375" y="188" type="line"/>
      <point x="2375" y="125" type="line"/>
    </contour>
    <contour>
      <point x="2375" y="256" type="line"/>
      <point x="2256" y="256" type="line"/>
      <point x="2256" y="375" type="line"/>
      <point x="2375" y="375" type="line"/>
    </contour>
    <contour>
      <point x="2131" y="125" type="line"/>
      <point x="2131" y="381" type="line"/>
      <point x="2068" y="381" type="line"/>
      <point x="2068" y="443" type="line"/>
      <point x="1938" y="443" type="line"/>
      <point x="1938" y="381" type="line"/>
      <point x="1875" y="381" type="line"/>
      <point x="1875" y="125" type="line"/>
      <point x="1943" y="125" type="line"/>
      <point x="1943" y="188" type="line"/>
      <point x="2063" y="188" type="line"/>
      <point x="2063" y="125" type="line"/>
    </contour>
    <contour>
      <point x="2063" y="256" type="line"/>
      <point x="1943" y="256" type="line"/>
      <point x="1943" y="375" type="line"/>
      <point x="2063" y="375" type="line"/>
    </contour>
    <contour>
      <point x="1818" y="125" type="line"/>
      <point x="1818" y="443" type="line"/>
      <point x="1750" y="443" type="line"/>
      <point x="1750" y="318" type="line"/>
      <point x="1631" y="318" type="line"/>
      <point x="1631" y="443" type="line"/>
      <point x="1563" y="443" type="line"/>
      <point x="1563" y="125" type="line"/>
      <point x="1631" y="125" type="line"/>
      <point x="1631" y="250" type="line"/>
      <point x="1750" y="250" type="line"/>
      <point x="1750" y="125" type="line"/>
    </contour>
    <contour>
      <point x="1506" y="125" type="line"/>
      <point x="1506" y="193" type="line"/>
      <point x="1381" y="193" type="line"/>
      <point x="1381" y="375" type="line"/>
      <point x="1506" y="375" type="line"/>
      <point x="1506" y="443" type="line"/>
      <point x="1375" y="443" type="line"/>
      <point x="1375" y="381" type="line"/>
      <point x="1313" y="381" type="line"/>
      <point x="1313" y="188" type="line"/>
      <point x="1375" y="188" type="line"/>
      <point x="1375" y="125" type="line"/>
    </contour>
    <contour>
      <point x="1256" y="125" type="line"/>
      <point x="1256" y="193" type="line"/>
      <point x="1131" y="193" type="line"/>
      <point x="1131" y="250" type="line"/>
      <point x="1193" y="250" type="line"/>
      <point x="1193" y="318" type="line"/>
      <point x="1131" y="318" type="line"/>
      <point x="1131" y="375" type="line"/>
      <point x="1256" y="375" type="line"/>
      <point x="1256" y="443" type="line"/>
      <point x="1063" y="443" type="line"/>
      <point x="1063" y="125" type="line"/>
    </contour>
    <contour>
      <point x="1006" y="125" type="line"/>
      <point x="1006" y="193" type="line"/>
      <point x="881" y="193" type="line"/>
      <point x="881" y="443" type="line"/>
      <point x="813" y="443" type="line"/>
      <point x="813" y="125" type="line"/>
    </contour>
    <contour>
      <point x="756" y="125" type="line"/>
      <point x="756" y="193" type="line"/>
      <point x="631" y="193" type="line"/>
      <point x="631" y="250" type="line"/>
      <point x="693" y="250" type="line"/>
      <point x="693" y="318" type="line"/>
      <point x="631" y="318" type="line"/>
      <point x="631" y="375" type="line"/>
      <point x="756" y="375" type="line"/>
      <point x="756" y="443" type="line"/>
      <point x="563" y="443" type="line"/>
      <point x="563" y="125" type="line"/>
    </contour>
    <contour>
      <point x="506" y="375" type="line"/>
      <point x="506" y="443" type="line"/>
      <point x="313" y="443" type="line"/>
      <point x="313" y="375" type="line"/>
      <point x="375" y="375" type="line"/>
      <point x="375" y="125" type="line"/>
      <point x="443" y="125" type="line"/>
      <point x="443" y="375" type="line"/>
    </contour>
    <contour>
      <point x="193" y="250" type="line"/>
      <point x="193" y="318" type="line"/>
      <point x="125" y="318" type="line"/>
      <point x="125" y="250" type="line"/>
    </contour>
  </outline>
</glyph>
<glyph name="quotedbl" format="1">
  <advance width="1688"/>
  <unicode hex="0022"/>
  <outline>
    <contour>
      <point x="1568" y="188" type="line"/>
      <point x="1568" y="381" type="line"/>
      <point x="1506" y="381" type="line"/>
      <point x="1506" y="443" type="line"/>
      <point x="1443" y="443" type="line"/>
      <point x="1443" y="506" type="line"/>
      <point x="1318" y="506" type="line"/>
      <point x="1318" y="568" type="line"/>
      <point x="250" y="568" type="line"/>
      <point x="250" y="506" type="line"/>
      <point x="125" y="506" type="line"/>
      <point x="125" y="443" type="line"/>
      <point x="63" y="443" type="line"/>
      <point x="63" y="381" type="line"/>
      <point x="0" y="381" type="line"/>
      <point x="0" y="188" type="line"/>
      <point x="63" y="188" type="line"/>
      <point x="63" y="125" type="line"/>
      <point x="125" y="125" type="line"/>
      <point x="125" y="63" type="line"/>
      <point x="250" y="63" type="line"/>
      <point x="250" y="0" type="line"/>
      <point x="1318" y="0" type="line"/>
      <point x="1318" y="63" type="line"/>
      <point x="1443" y="63" type="line"/>
      <point x="1443" y="125" type="line"/>
      <point x="1506" y="125" type="line"/>
      <point x="1506" y="188" type="line"/>
    </contour>
    <contour>
      <point x="1500" y="193" type="line"/>
      <point x="1438" y="193" type="line"/>
      <point x="1438" y="131" type="line"/>
      <point x="1313" y="131" type="line"/>
      <point x="1313" y="68" type="line"/>
      <point x="256" y="68" type="line"/>
      <point x="256" y="131" type="line"/>
      <point x="131" y="131" type="line"/>
      <point x="131" y="193" type="line"/>
      <point x="68" y="193" type="line"/>
      <point x="68" y="375" type="line"/>
      <point x="131" y="375" type="line"/>
      <point x="131" y="438" type="line"/>
      <point x="256" y="438" type="line"/>
      <point x="256" y="500" type="line"/>
      <point x="1313" y="500" type="line"/>
      <point x="1313" y="438" type="line"/>
      <point x="1438" y="438" type="line"/>
      <point x="1438" y="375" type="line"/>
      <point x="1500" y="375" type="line"/>
    </contour>
    <contour>
      <point x="1443" y="250" type="line"/>
      <point x="1443" y="318" type="line"/>
      <point x="1375" y="318" type="line"/>
      <point x="1375" y="250" type="line"/>
    </contour>
    <contour>
      <point x="1256" y="125" type="line"/>
      <point x="1256" y="193" type="line"/>
      <point x="1068" y="193" type="line"/>
      <point x="1068" y="375" type="line"/>
      <point x="1256" y="375" type="line"/>
      <point x="1256" y="443" type="line"/>
      <point x="1063" y="443" type="line"/>
      <point x="1063" y="381" type="line"/>
      <point x="1000" y="381" type="line"/>
      <point x="1000" y="188" type="line"/>
      <point x="1063" y="188" type="line"/>
      <point x="1063" y="125" type="line"/>
    </contour>
    <contour>
      <point x="943" y="125" type="line"/>
      <point x="943" y="381" type="line"/>
      <point x="881" y="381" type="line"/>
      <point x="881" y="443" type="line"/>
      <point x="750" y="443" type="line"/>
      <point x="750" y="381" type="line"/>
      <point x="688" y="381" type="line"/>
      <point x="688" y="125" type="line"/>
      <point x="756" y="125" type="line"/>
      <point x="756" y="250" type="line"/>
      <point x="875" y="250" type="line"/>
      <point x="875" y="125" type="line"/>
    </contour>
    <contour>
      <point x="875" y="318" type="line"/>
      <point x="756" y="318" type="line"/>
      <point x="756" y="375" type="line"/>
      <point x="875" y="375" type="line"/>
    </contour>
    <contour>
      <point x="631" y="125" type="line"/>
      <point x="631" y="443" type="line"/>
      <point x="563" y="443" type="line"/>
      <point x="563" y="381" type="line"/>
      <point x="500" y="381" type="line"/>
      <point x="500" y="318" type="line"/>
      <point x="443" y="318" type="line"/>
      <point x="443" y="381" type="line"/>
      <point x="381" y="381" type="line"/>
      <point x="381" y="443" type="line"/>
      <point x="313" y="443" type="line"/>
      <point x="313" y="125" type="line"/>
      <point x="381" y="125" type="line"/>
      <point x="381" y="313" type="line"/>
      <point x="438" y="313" type="line"/>
      <point x="438" y="250" type="line"/>
      <point x="506" y="250" type="line"/>
      <point x="506" y="313" type="line"/>
      <point x="563" y="313" type="line"/>
      <point x="563" y="125" type="line"/>
    </contour>
    <contour>
      <point x="193" y="250" type="line"/>
      <point x="193" y="318" type="line"/>
      <point x="125" y="318" type="line"/>
      <point x="125" y="250" type="line"/>
    </contour>
  </outline>
</glyph>
<glyph name="numbersign" format="1">
  <advance width="1313"/>
  <unicode hex="0023"/>
  <outline>
    <contour>
      <point x="1193" y="188" type="line"/>
      <point x="1193" y="381" type="line"/>
      <point x="1131" y="381" type="line"/>
      <point x="1131" y="443" type="line"/>
      <point x="1068" y="443" type="line"/>
      <point x="1068" y="506" type="line"/>
      <point x="943" y="506" type="line"/>
      <point x="943" y="568" type="line"/>
      <point x="250" y="568" type="line"/>
      <point x="250" y="506" type="line"/>
      <point x="125" y="506" type="line"/>
      <point x="125" y="443" type="line"/>
      <point x="63" y="443" type="line"/>
      <point x="63" y="381" type="line"/>
      <point x="0" y="381" type="line"/>
      <point x="0" y="188" type="line"/>
      <point x="63" y="188" type="line"/>
      <point x="63" y="125" type="line"/>
      <point x="125" y="125" type="line"/>
      <point x="125" y="63" type="line"/>
      <point x="250" y="63" type="line"/>
      <point x="250" y="0" type="line"/>
      <point x="943" y="0" type="line"/>
      <point x="943" y="63" type="line"/>
      <point x="1068" y="63" type="line"/>
      <point x="1068" y="125" type="line"/>
      <point x="1131" y="125" type="line"/>
      <point x="1131" y="188" type="line"/>
    </contour>
    <contour>
      <point x="1125" y="193" type="line"/>
      <point x="1063" y="193" type="line"/>
      <point x="1063" y="131" type="line"/>
      <point x="938" y="131" type="line"/>
      <point x="938" y="68" type="line"/>
      <point x="256" y="68" type="line"/>
      <point x="256" y="131" type="line"/>
      <point x="131" y="131" type="line"/>
      <point x="131" y="193" type="line"/>
      <point x="68" y="193" type="line"/>
      <point x="68" y="375" type="line"/>
      <point x="131" y="375" type="line"/>
      <point x="131" y="438" type="line"/>
      <point x="256" y="438" type="line"/>
      <point x="256" y="500" type="line"/>
      <point x="938" y="500" type="line"/>
      <point x="938" y="438" type="line"/>
      <point x="1063" y="438" type="line"/>
      <point x="1063" y="375" type="line"/>
      <point x="1125" y="375" type="line"/>
    </contour>
    <contour>
      <point x="1068" y="250" type="line"/>
      <point x="1068" y="318" type="line"/>
      <point x="1000" y="318" type="line"/>
      <point x="1000" y="250" type="line"/>
    </contour>
    <contour>
      <point x="881" y="125" type="line"/>
      <point x="881" y="193" type="line"/>
      <point x="693" y="193" type="line"/>
      <point x="693" y="375" type="line"/>
      <point x="881" y="375" type="line"/>
      <point x="881" y="443" type="line"/>
      <point x="688" y="443" type="line"/>
      <point x="688" y="381" type="line"/>
      <point x="625" y="381" type="line"/>
      <point x="625" y="188" type="line"/>
      <point x="688" y="188" type="line"/>
      <point x="688" y="125" type="line"/>
    </contour>
    <contour>
      <point x="568" y="250" type="line"/>
      <point x="568" y="443" type="line"/>
      <point x="313" y="443" type="line"/>
      <point x="313" y="125" type="line"/>
      <point x="381" y="125" type="line"/>
      <point x="381" y="250" type="line"/>
    </contour>
    <contour>
      <point x="500" y="318" type="line"/>
      <point x="381" y="318" type="line"/>
      <point x="381" y="375" type="line"/>
      <point x="500" y="375" type="line"/>
    </contour>
    <contour>
      <point x="193" y="250" type="line"/>
      <point x="193" y="318" type="line"/>
      <point x="125" y="318" type="line"/>
      <point x="125" y="250" type="line"/>
    </contour>
  </outline>
</glyph>
<glyph name="percent" format="1">
  <advance width="1751"/>
  <unicode hex="0025"/>
  <outline>
    <contour>
      <point x="1631" y="188" type="line"/>
      <point x="1631" y="381" type="line"/>
      <point x="1568" y="381" type="line"/>
      <point x="1568" y="443" type="line"/>
      <point x="1506" y="443" type="line"/>
      <point x="1506" y="506" type="line"/>
      <point x="1381" y="506" type="line"/>
      <point x="1381" y="568" type="line"/>
      <point x="250" y="568" type="line"/>
      <point x="250" y="506" type="line"/>
      <point x="125" y="506" type="line"/>
      <point x="125" y="443" type="line"/>
      <point x="63" y="443" type="line"/>
      <point x="63" y="381" type="line"/>
      <point x="0" y="381" type="line"/>
      <point x="0" y="188" type="line"/>
      <point x="63" y="188" type="line"/>
      <point x="63" y="125" type="line"/>
      <point x="125" y="125" type="line"/>
      <point x="125" y="63" type="line"/>
      <point x="250" y="63" type="line"/>
      <point x="250" y="0" type="line"/>
      <point x="1381" y="0" type="line"/>
      <point x="1381" y="63" type="line"/>
      <point x="1506" y="63" type="line"/>
      <point x="1506" y="125" type="line"/>
      <point x="1568" y="125" type="line"/>
      <point x="1568" y="188" type="line"/>
    </contour>
    <contour>
      <point x="1563" y="193" type="line"/>
      <point x="1500" y="193" type="line"/>
      <point x="1500" y="131" type="line"/>
      <point x="1375" y="131" type="line"/>
      <point x="1375" y="68" type="line"/>
      <point x="256" y="68" type="line"/>
      <point x="256" y="131" type="line"/>
      <point x="131" y="131" type="line"/>
      <point x="131" y="193" type="line"/>
      <point x="68" y="193" type="line"/>
      <point x="68" y="375" type="line"/>
      <point x="131" y="375" type="line"/>
      <point x="131" y="438" type="line"/>
      <point x="256" y="438" type="line"/>
      <point x="256" y="500" type="line"/>
      <point x="1375" y="500" type="line"/>
      <point x="1375" y="438" type="line"/>
      <point x="1500" y="438" type="line"/>
      <point x="1500" y="375" type="line"/>
      <point x="1563" y="375" type="line"/>
    </contour>
    <contour>
      <point x="1506" y="250" type="line"/>
      <point x="1506" y="318" type="line"/>
      <point x="1438" y="318" type="line"/>
      <point x="1438" y="250" type="line"/>
    </contour>
    <contour>
      <point x="1318" y="125" type="line"/>
      <point x="1318" y="193" type="line"/>
      <point x="1256" y="193" type="line"/>
      <point x="1256" y="256" type="line"/>
      <point x="1193" y="256" type="line"/>
      <point x="1193" y="313" type="line"/>
      <point x="1256" y="313" type="line"/>
      <point x="1256" y="375" type="line"/>
      <point x="1318" y="375" type="line"/>
      <point x="1318" y="443" type="line"/>
      <point x="1250" y="443" type="line"/>
      <point x="1250" y="381" type="line"/>
      <point x="1188" y="381" type="line"/>
      <point x="1188" y="318" type="line"/>
      <point x="1131" y="318" type="line"/>
      <point x="1131" y="381" type="line"/>
      <point x="1068" y="381" type="line"/>
      <point x="1068" y="443" type="line"/>
      <point x="1000" y="443" type="line"/>
      <point x="1000" y="375" type="line"/>
      <point x="1063" y="375" type="line"/>
      <point x="1063" y="313" type="line"/>
      <point x="1125" y="313" type="line"/>
      <point x="1125" y="256" type="line"/>
      <point x="1063" y="256" type="line"/>
      <point x="1063" y="193" type="line"/>
      <point x="1000" y="193" type="line"/>
      <point x="1000" y="125" type="line"/>
      <point x="1068" y="125" type="line"/>
      <point x="1068" y="188" type="line"/>
      <point x="1131" y="188" type="line"/>
      <point x="1131" y="250" type="line"/>
      <point x="1188" y="250" type="line"/>
      <point x="1188" y="188" type="line"/>
      <point x="1250" y="188" type="line"/>
      <point x="1250" y="125" type="line"/>
    </contour>
    <contour>
      <point x="881" y="188" type="line"/>
      <point x="881" y="256" type="line"/>
      <point x="818" y="256" type="line"/>
      <point x="818" y="318" type="line"/>
      <point x="693" y="318" type="line"/>
      <point x="693" y="375" type="line"/>
      <point x="881" y="375" type="line"/>
      <point x="881" y="443" type="line"/>
      <point x="688" y="443" type="line"/>
      <point x="688" y="381" type="line"/>
      <point x="625" y="381" type="line"/>
      <point x="625" y="313" type="line"/>
      <point x="688" y="313" type="line"/>
      <point x="688" y="250" type="line"/>
      <point x="813" y="250" type="line"/>
      <point x="813" y="193" type="line"/>
      <point x="625" y="193" type="line"/>
      <point x="625" y="125" type="line"/>
      <point x="818" y="125" type="line"/>
      <point x="818" y="188" type="line"/>
    </contour>
    <contour>
      <point x="568" y="188" type="line"/>
      <point x="568" y="381" type="line"/>
      <point x="506" y="381" type="line"/>
      <point x="506" y="443" type="line"/>
      <point x="375" y="443" type="line"/>
      <point x="375" y="381" type="line"/>
      <point x="313" y="381" type="line"/>
      <point x="313" y="188" type="line"/>
      <point x="375" y="188" type="line"/>
      <point x="375" y="125" type="line"/>
      <point x="506" y="125" type="line"/>
      <point x="506" y="188" type="line"/>
    </contour>
    <contour>
      <point x="500" y="193" type="line"/>
      <point x="381" y="193" type="line"/>
      <point x="381" y="375" type="line"/>
      <point x="500" y="375" type="line"/>
    </contour>
    <contour>
      <point x="193" y="250" type="line"/>
      <point x="193" y="318" type="line"/>
      <point x="125" y="318" type="line"/>
      <point x="125" y="250" type="line"/>
    </contour>
  </outline>
</glyph>
<glyph name="ampersand" format="1">
  <advance width="876"/>
  <unicode hex="0026"/>
  <outline>
    <contour>
      <point x="756" y="-62" type="line"/>
      <point x="756" y="68" type="line"/>
      <point x="688" y="68" type="line"/>
      <point x="688" y="-57" type="line"/>
      <point x="131" y="-57" type="line"/>
      <point x="131" y="68" type="line"/>
      <point x="68" y="68" type="line"/>
      <point x="68" y="563" type="line"/>
      <point x="131" y="563" type="line"/>
      <point x="131" y="688" type="line"/>
      <point x="625" y="688" type="line"/>
      <point x="625" y="563" type="line"/>
      <point x="688" y="563" type="line"/>
      <point x="688" y="193" type="line"/>
      <point x="568" y="193" type="line"/>
      <point x="568" y="256" type="line"/>
      <point x="506" y="256" type="line"/>
      <point x="506" y="318" type="line"/>
      <point x="443" y="318" type="line"/>
      <point x="443" y="375" type="line"/>
      <point x="506" y="375" type="line"/>
      <point x="506" y="438" type="line"/>
      <point x="568" y="438" type="line"/>
      <point x="568" y="568" type="line"/>
      <point x="506" y="568" type="line"/>
      <point x="506" y="631" type="line"/>
      <point x="250" y="631" type="line"/>
      <point x="250" y="568" type="line"/>
      <point x="188" y="568" type="line"/>
      <point x="188" y="438" type="line"/>
      <point x="250" y="438" type="line"/>
      <point x="250" y="375" type="line"/>
      <point x="313" y="375" type="line"/>
      <point x="313" y="318" type="line"/>
      <point x="250" y="318" type="line"/>
      <point x="250" y="256" type="line"/>
      <point x="188" y="256" type="line"/>
      <point x="188" y="63" type="line"/>
      <point x="250" y="63" type="line"/>
      <point x="250" y="0" type="line"/>
      <point x="568" y="0" type="line"/>
      <point x="568" y="63" type="line"/>
      <point x="631" y="63" type="line"/>
      <point x="631" y="125" type="line"/>
      <point x="693" y="125" type="line"/>
      <point x="693" y="188" type="line"/>
      <point x="756" y="188" type="line"/>
      <point x="756" y="568" type="line"/>
      <point x="693" y="568" type="line"/>
      <point x="693" y="693" type="line"/>
      <point x="631" y="693" type="line"/>
      <point x="631" y="756" type="line"/>
      <point x="125" y="756" type="line"/>
      <point x="125" y="693" type="line"/>
      <point x="63" y="693" type="line"/>
      <point x="63" y="568" type="line"/>
      <point x="0" y="568" type="line"/>
      <point x="0" y="63" type="line"/>
      <point x="63" y="63" type="line"/>
      <point x="63" y="-62" type="line"/>
      <point x="125" y="-62" type="line"/>
      <point x="125" y="-125" type="line"/>
      <point x="693" y="-125" type="line"/>
      <point x="693" y="-62" type="line"/>
    </contour>
    <contour>
      <point x="500" y="443" type="line"/>
      <point x="438" y="443" type="line"/>
      <point x="438" y="381" type="line"/>
      <point x="381" y="381" type="line"/>
      <point x="381" y="443" type="line"/>
      <point x="318" y="443" type="line"/>
      <point x="318" y="563" type="line"/>
      <point x="500" y="563" type="line"/>
    </contour>
    <contour>
      <point x="563" y="68" type="line"/>
      <point x="318" y="68" type="line"/>
      <point x="318" y="313" type="line"/>
      <point x="375" y="313" type="line"/>
      <point x="375" y="250" type="line"/>
      <point x="438" y="250" type="line"/>
      <point x="438" y="188" type="line"/>
      <point x="500" y="188" type="line"/>
      <point x="500" y="125" type="line"/>
      <point x="563" y="125" type="line"/>
    </contour>
  </outline>
</glyph>
<glyph name="parenleft" format="1">
  <advance width="3188"/>
  <unicode hex="0028"/>
  <outline>
    <contour>
      <point x="3068" y="188" type="line"/>
      <point x="3068" y="381" type="line"/>
      <point x="3006" y="381" type="line"/>
      <point x="3006" y="443" type="line"/>
      <point x="2943" y="443" type="line"/>
      <point x="2943" y="506" type="line"/>
      <point x="2818" y="506" type="line"/>
      <point x="2818" y="568" type="line"/>
      <point x="250" y="568" type="line"/>
      <point x="250" y="506" type="line"/>
      <point x="125" y="506" type="line"/>
      <point x="125" y="443" type="line"/>
      <point x="63" y="443" type="line"/>
      <point x="63" y="381" type="line"/>
      <point x="0" y="381" type="line"/>
      <point x="0" y="188" type="line"/>
      <point x="63" y="188" type="line"/>
      <point x="63" y="125" type="line"/>
      <point x="125" y="125" type="line"/>
      <point x="125" y="63" type="line"/>
      <point x="250" y="63" type="line"/>
      <point x="250" y="0" type="line"/>
      <point x="2818" y="0" type="line"/>
      <point x="2818" y="63" type="line"/>
      <point x="2943" y="63" type="line"/>
      <point x="2943" y="125" type="line"/>
      <point x="3006" y="125" type="line"/>
      <point x="3006" y="188" type="line"/>
    </contour>
    <contour>
      <point x="3000" y="193" type="line"/>
      <point x="2938" y="193" type="line"/>
      <point x="2938" y="131" type="line"/>
      <point x="2813" y="131" type="line"/>
      <point x="2813" y="68" type="line"/>
      <point x="256" y="68" type="line"/>
      <point x="256" y="131" type="line"/>
      <point x="131" y="131" type="line"/>
      <point x="131" y="193" type="line"/>
      <point x="68" y="193" type="line"/>
      <point x="68" y="375" type="line"/>
      <point x="131" y="375" type="line"/>
      <point x="131" y="438" type="line"/>
      <point x="256" y="438" type="line"/>
      <point x="256" y="500" type="line"/>
      <point x="2813" y="500" type="line"/>
      <point x="2813" y="438" type="line"/>
      <point x="2938" y="438" type="line"/>
      <point x="2938" y="375" type="line"/>
      <point x="3000" y="375" type="line"/>
    </contour>
    <contour>
      <point x="2943" y="250" type="line"/>
      <point x="2943" y="318" type="line"/>
      <point x="2875" y="318" type="line"/>
      <point x="2875" y="250" type="line"/>
    </contour>
    <contour>
      <point x="2756" y="188" type="line"/>
      <point x="2756" y="381" type="line"/>
      <point x="2693" y="381" type="line"/>
      <point x="2693" y="443" type="line"/>
      <point x="2500" y="443" type="line"/>
      <point x="2500" y="125" type="line"/>
      <point x="2693" y="125" type="line"/>
      <point x="2693" y="188" type="line"/>
    </contour>
    <contour>
      <point x="2688" y="193" type="line"/>
      <point x="2568" y="193" type="line"/>
      <point x="2568" y="375" type="line"/>
      <point x="2688" y="375" type="line"/>
    </contour>
    <contour>
      <point x="2443" y="125" type="line"/>
      <point x="2443" y="381" type="line"/>
      <point x="2381" y="381" type="line"/>
      <point x="2381" y="443" type="line"/>
      <point x="2250" y="443" type="line"/>
      <point x="2250" y="381" type="line"/>
      <point x="2188" y="381" type="line"/>
      <point x="2188" y="125" type="line"/>
      <point x="2256" y="125" type="line"/>
      <point x="2256" y="188" type="line"/>
      <point x="2375" y="188" type="line"/>
      <point x="2375" y="125" type="line"/>
    </contour>
    <contour>
      <point x="2375" y="256" type="line"/>
      <point x="2256" y="256" type="line"/>
      <point x="2256" y="375" type="line"/>
      <point x="2375" y="375" type="line"/>
    </contour>
    <contour>
      <point x="2131" y="188" type="line"/>
      <point x="2131" y="381" type="line"/>
      <point x="2068" y="381" type="line"/>
      <point x="2068" y="443" type="line"/>
      <point x="1938" y="443" type="line"/>
      <point x="1938" y="381" type="line"/>
      <point x="1875" y="381" type="line"/>
      <point x="1875" y="193" type="line"/>
      <point x="1756" y="193" type="line"/>
      <point x="1756" y="443" type="line"/>
      <point x="1688" y="443" type="line"/>
      <point x="1688" y="125" type="line"/>
      <point x="1881" y="125" type="line"/>
      <point x="1881" y="188" type="line"/>
      <point x="1938" y="188" type="line"/>
      <point x="1938" y="125" type="line"/>
      <point x="2068" y="125" type="line"/>
      <point x="2068" y="188" type="line"/>
    </contour>
    <contour>
      <point x="2063" y="193" type="line"/>
      <point x="1943" y="193" type="line"/>
      <point x="1943" y="375" type="line"/>
      <point x="2063" y="375" type="line"/>
    </contour>
    <contour>
      <point x="1631" y="125" type="line"/>
      <point x="1631" y="443" type="line"/>
      <point x="1563" y="443" type="line"/>
      <point x="1563" y="318" type="line"/>
      <point x="1506" y="318" type="line"/>
      <point x="1506" y="381" type="line"/>
      <point x="1443" y="381" type="line"/>
      <point x="1443" y="443" type="line"/>
      <point x="1375" y="443" type="line"/>
      <point x="1375" y="125" type="line"/>
      <point x="1443" y="125" type="line"/>
      <point x="1443" y="313" type="line"/>
      <point x="1500" y="313" type="line"/>
      <point x="1500" y="250" type="line"/>
      <point x="1563" y="250" type="line"/>
      <point x="1563" y="125" type="line"/>
    </contour>
    <contour>
      <point x="1318" y="188" type="line"/>
      <point x="1318" y="443" type="line"/>
      <point x="1250" y="443" type="line"/>
      <point x="1250" y="193" type="line"/>
      <point x="1193" y="193" type="line"/>
      <point x="1193" y="318" type="line"/>
      <point x="1125" y="318" type="line"/>
      <point x="1125" y="193" type="line"/>
      <point x="1068" y="193" type="line"/>
      <point x="1068" y="443" type="line"/>
      <point x="1000" y="443" type="line"/>
      <point x="1000" y="188" type="line"/>
      <point x="1063" y="188" type="line"/>
      <point x="1063" y="125" type="line"/>
      <point x="1131" y="125" type="line"/>
      <point x="1131" y="188" type="line"/>
      <point x="1188" y="188" type="line"/>
      <point x="1188" y="125" type="line"/>
      <point x="1256" y="125" type="line"/>
      <point x="1256" y="188" type="line"/>
    </contour>
    <contour>
      <point x="943" y="188" type="line"/>
      <point x="943" y="381" type="line"/>
      <point x="881" y="381" type="line"/>
      <point x="881" y="443" type="line"/>
      <point x="750" y="443" type="line"/>
      <point x="750" y="381" type="line"/>
      <point x="688" y="381" type="line"/>
      <point x="688" y="188" type="line"/>
      <point x="750" y="188" type="line"/>
      <point x="750" y="125" type="line"/>
      <point x="881" y="125" type="line"/>
      <point x="881" y="188" type="line"/>
    </contour>
    <contour>
      <point x="875" y="193" type="line"/>
      <point x="756" y="193" type="line"/>
      <point x="756" y="375" type="line"/>
      <point x="875" y="375" type="line"/>
    </contour>
    <contour>
      <point x="631" y="188" type="line"/>
      <point x="631" y="381" type="line"/>
      <point x="568" y="381" type="line"/>
      <point x="568" y="443" type="line"/>
      <point x="375" y="443" type="line"/>
      <point x="375" y="125" type="line"/>
      <point x="568" y="125" type="line"/>
      <point x="568" y="188" type="line"/>
    </contour>
    <contour>
      <point x="563" y="193" type="line"/>
      <point x="443" y="193" type="line"/>
      <point x="443" y="375" type="line"/>
      <point x="563" y="375" type="line"/>
    </contour>
    <contour>
      <point x="193" y="250" type="line"/>
      <point x="193" y="318" type="line"/>
      <point x="125" y="318" type="line"/>
      <point x="125" y="250" type="line"/>
    </contour>
  </outline>
</glyph>
<glyph name="parenright" format="1">
  <advance width="1688"/>
  <unicode hex="0029"/>
  <outline>
    <contour>
      <point x="1568" y="188" type="line"/>
      <point x="1568" y="381" type="line"/>
      <point x="1506" y="381" type="line"/>
      <point x="1506" y="443" type="line"/>
      <point x="1443" y="443" type="line"/>
      <point x="1443" y="506" type="line"/>
      <point x="1318" y="506" type="line"/>
      <point x="1318" y="568" type="line"/>
      <point x="250" y="568" type="line"/>
      <point x="250" y="506" type="line"/>
      <point x="125" y="506" type="line"/>
      <point x="125" y="443" type="line"/>
      <point x="63" y="443" type="line"/>
      <point x="63" y="381" type="line"/>
      <point x="0" y="381" type="line"/>
      <point x="0" y="188" type="line"/>
      <point x="63" y="188" type="line"/>
      <point x="63" y="125" type="line"/>
      <point x="125" y="125" type="line"/>
      <point x="125" y="63" type="line"/>
      <point x="250" y="63" type="line"/>
      <point x="250" y="0" type="line"/>
      <point x="1318" y="0" type="line"/>
      <point x="1318" y="63" type="line"/>
      <point x="1443" y="63" type="line"/>
      <point x="1443" y="125" type="line"/>
      <point x="1506" y="125" type="line"/>
      <point x="1506" y="188" type="line"/>
    </contour>
    <contour>
      <point x="1500" y="193" type="line"/>
      <point x="1438" y="193" type="line"/>
      <point x="1438" y="131" type="line"/>
      <point x="1313" y="131" type="line"/>
      <point x="1313" y="68" type="line"/>
      <point x="256" y="68" type="line"/>
      <point x="256" y="131" type="line"/>
      <point x="131" y="131" type="line"/>
      <point x="131" y="193" type="line"/>
      <point x="68" y="193" type="line"/>
      <point x="68" y="375" type="line"/>
      <point x="131" y="375" type="line"/>
      <point x="131" y="438" type="line"/>
      <point x="256" y="438" type="line"/>
      <point x="256" y="500" type="line"/>
      <point x="1313" y="500" type="line"/>
      <point x="1313" y="438" type="line"/>
      <point x="1438" y="438" type="line"/>
      <point x="1438" y="375" type="line"/>
      <point x="1500" y="375" type="line"/>
    </contour>
    <contour>
      <point x="1443" y="250" type="line"/>
      <point x="1443" y="318" type="line"/>
      <point x="1375" y="318" type="line"/>
      <point x="1375" y="250" type="line"/>
    </contour>
    <contour>
      <point x="1256" y="375" type="line"/>
      <point x="1256" y="443" type="line"/>
      <point x="1000" y="443" type="line"/>
      <point x="1000" y="125" type="line"/>
      <point x="1068" y="125" type="line"/>
      <point x="1068" y="250" type="line"/>
      <point x="1193" y="250" type="line"/>
      <point x="1193" y="318" type="line"/>
      <point x="1068" y="318" type="line"/>
      <point x="1068" y="375" type="line"/>
    </contour>
    <contour>
      <point x="943" y="188" type="line"/>
      <point x="943" y="381" type="line"/>
      <point x="881" y="381" type="line"/>
      <point x="881" y="443" type="line"/>
      <point x="688" y="443" type="line"/>
      <point x="688" y="125" type="line"/>
      <point x="881" y="125" type="line"/>
      <point x="881" y="188" type="line"/>
    </contour>
    <contour>
      <point x="875" y="193" type="line"/>
      <point x="756" y="193" type="line"/>
      <point x="756" y="375" type="line"/>
      <point x="875" y="375" type="line"/>
    </contour>
    <contour>
      <point x="631" y="250" type="line"/>
      <point x="631" y="381" type="line"/>
      <point x="568" y="381" type="line"/>
      <point x="568" y="443" type="line"/>
      <point x="375" y="443" type="line"/>
      <point x="375" y="125" type="line"/>
      <point x="443" y="125" type="line"/>
      <point x="443" y="188" type="line"/>
      <point x="568" y="188" type="line"/>
      <point x="568" y="250" type="line"/>
    </contour>
    <contour>
      <point x="563" y="256" type="line"/>
      <point x="443" y="256" type="line"/>
      <point x="443" y="375" type="line"/>
      <point x="563" y="375" type="line"/>
    </contour>
    <contour>
      <point x="193" y="250" type="line"/>
      <point x="193" y="318" type="line"/>
      <point x="125" y="318" type="line"/>
      <point x="125" y="250" type="line"/>
    </contour>
  </outline>
</glyph>
<glyph name="plus" format="1">
  <advance width="2501"/>
  <unicode hex="002B"/>
  <outline>
    <contour>
      <point x="2381" y="188" type="line"/>
      <point x="2381" y="381" type="line"/>
      <point x="2318" y="381" type="line"/>
      <point x="2318" y="443" type="line"/>
      <point x="2256" y="443" type="line"/>
      <point x="2256" y="506" type="line"/>
      <point x="2131" y="506" type="line"/>
      <point x="2131" y="568" type="line"/>
      <point x="250" y="568" type="line"/>
      <point x="250" y="506" type="line"/>
      <point x="125" y="506" type="line"/>
      <point x="125" y="443" type="line"/>
      <point x="63" y="443" type="line"/>
      <point x="63" y="381" type="line"/>
      <point x="0" y="381" type="line"/>
      <point x="0" y="188" type="line"/>
      <point x="63" y="188" type="line"/>
      <point x="63" y="125" type="line"/>
      <point x="125" y="125" type="line"/>
      <point x="125" y="63" type="line"/>
      <point x="250" y="63" type="line"/>
      <point x="250" y="0" type="line"/>
      <point x="2131" y="0" type="line"/>
      <point x="2131" y="63" type="line"/>
      <point x="2256" y="63" type="line"/>
      <point x="2256" y="125" type="line"/>
      <point x="2318" y="125" type="line"/>
      <point x="2318" y="188" type="line"/>
    </contour>
    <contour>
      <point x="2313" y="193" type="line"/>
      <point x="2250" y="193" type="line"/>
      <point x="2250" y="131" type="line"/>
      <point x="2125" y="131" type="line"/>
      <point x="2125" y="68" type="line"/>
      <point x="256" y="68" type="line"/>
      <point x="256" y="131" type="line"/>
      <point x="131" y="131" type="line"/>
      <point x="131" y="193" type="line"/>
      <point x="68" y="193" type="line"/>
      <point x="68" y="375" type="line"/>
      <point x="131" y="375" type="line"/>
      <point x="131" y="438" type="line"/>
      <point x="256" y="438" type="line"/>
      <point x="256" y="500" type="line"/>
      <point x="2125" y="500" type="line"/>
      <point x="2125" y="438" type="line"/>
      <point x="2250" y="438" type="line"/>
      <point x="2250" y="375" type="line"/>
      <point x="2313" y="375" type="line"/>
    </contour>
    <contour>
      <point x="2256" y="250" type="line"/>
      <point x="2256" y="318" type="line"/>
      <point x="2188" y="318" type="line"/>
      <point x="2188" y="250" type="line"/>
    </contour>
    <contour>
      <point x="2068" y="375" type="line"/>
      <point x="2068" y="443" type="line"/>
      <point x="1750" y="443" type="line"/>
      <point x="1750" y="375" type="line"/>
      <point x="1875" y="375" type="line"/>
      <point x="1875" y="125" type="line"/>
      <point x="1943" y="125" type="line"/>
      <point x="1943" y="375" type="line"/>
    </contour>
    <contour>
      <point x="1693" y="125" type="line"/>
      <point x="1693" y="443" type="line"/>
      <point x="1625" y="443" type="line"/>
      <point x="1625" y="125" type="line"/>
    </contour>
    <contour>
      <point x="1568" y="125" type="line"/>
      <point x="1568" y="443" type="line"/>
      <point x="1500" y="443" type="line"/>
      <point x="1500" y="381" type="line"/>
      <point x="1438" y="381" type="line"/>
      <point x="1438" y="318" type="line"/>
      <point x="1381" y="318" type="line"/>
      <point x="1381" y="381" type="line"/>
      <point x="1318" y="381" type="line"/>
      <point x="1318" y="443" type="line"/>
      <point x="1250" y="443" type="line"/>
      <point x="1250" y="125" type="line"/>
      <point x="1318" y="125" type="line"/>
      <point x="1318" y="313" type="line"/>
      <point x="1375" y="313" type="line"/>
      <point x="1375" y="250" type="line"/>
      <point x="1443" y="250" type="line"/>
      <point x="1443" y="313" type="line"/>
      <point x="1500" y="313" type="line"/>
      <point x="1500" y="125" type="line"/>
    </contour>
    <contour>
      <point x="1193" y="188" type="line"/>
      <point x="1193" y="256" type="line"/>
      <point x="1131" y="256" type="line"/>
      <point x="1131" y="313" type="line"/>
      <point x="1193" y="313" type="line"/>
      <point x="1193" y="381" type="line"/>
      <point x="1131" y="381" type="line"/>
      <point x="1131" y="443" type="line"/>
      <point x="938" y="443" type="line"/>
      <point x="938" y="125" type="line"/>
      <point x="1131" y="125" type="line"/>
      <point x="1131" y="188" type="line"/>
    </contour>
    <contour>
      <point x="1125" y="318" type="line"/>
      <point x="1006" y="318" type="line"/>
      <point x="1006" y="375" type="line"/>
      <point x="1125" y="375" type="line"/>
    </contour>
    <contour>
      <point x="1125" y="193" type="line"/>
      <point x="1006" y="193" type="line"/>
      <point x="1006" y="250" type="line"/>
      <point x="1125" y="250" type="line"/>
    </contour>
    <contour>
      <point x="881" y="188" type="line"/>
      <point x="881" y="443" type="line"/>
      <point x="813" y="443" type="line"/>
      <point x="813" y="193" type="line"/>
      <point x="693" y="193" type="line"/>
      <point x="693" y="443" type="line"/>
      <point x="625" y="443" type="line"/>
      <point x="625" y="188" type="line"/>
      <point x="688" y="188" type="line"/>
      <point x="688" y="125" type="line"/>
      <point x="818" y="125" type="line"/>
      <point x="818" y="188" type="line"/>
    </contour>
    <contour>
      <point x="568" y="188" type="line"/>
      <point x="568" y="256" type="line"/>
      <point x="506" y="256" type="line"/>
      <point x="506" y="318" type="line"/>
      <point x="381" y="318" type="line"/>
      <point x="381" y="375" type="line"/>
      <point x="568" y="375" type="line"/>
      <point x="568" y="443" type="line"/>
      <point x="375" y="443" type="line"/>
      <point x="375" y="381" type="line"/>
      <point x="313" y="381" type="line"/>
      <point x="313" y="313" type="line"/>
      <point x="375" y="313" type="line"/>
      <point x="375" y="250" type="line"/>
      <point x="500" y="250" type="line"/>
      <point x="500" y="193" type="line"/>
      <point x="313" y="193" type="line"/>
      <point x="313" y="125" type="line"/>
      <point x="506" y="125" type="line"/>
      <point x="506" y="188" type="line"/>
    </contour>
    <contour>
      <point x="193" y="250" type="line"/>
      <point x="193" y="318" type="line"/>
      <point x="125" y="318" type="line"/>
      <point x="125" y="250" type="line"/>
    </contour>
  </outline>
</glyph>
<glyph name="comma" format="1">
  <advance width="1438"/>
  <unicode hex="002C"/>
  <outline>
    <contour>
      <point x="1318" y="188" type="line"/>
      <point x="1318" y="381" type="line"/>
      <point x="1256" y="381" type="line"/>
      <point x="1256" y="443" type="line"/>
      <point x="1193" y="443" type="line"/>
      <point x="1193" y="506" type="line"/>
      <point x="1068" y="506" type="line"/>
      <point x="1068" y="568" type="line"/>
      <point x="250" y="568" type="line"/>
      <point x="250" y="506" type="line"/>
      <point x="125" y="506" type="line"/>
      <point x="125" y="443" type="line"/>
      <point x="63" y="443" type="line"/>
      <point x="63" y="381" type="line"/>
      <point x="0" y="381" type="line"/>
      <point x="0" y="188" type="line"/>
      <point x="63" y="188" type="line"/>
      <point x="63" y="125" type="line"/>
      <point x="125" y="125" type="line"/>
      <point x="125" y="63" type="line"/>
      <point x="250" y="63" type="line"/>
      <point x="250" y="0" type="line"/>
      <point x="1068" y="0" type="line"/>
      <point x="1068" y="63" type="line"/>
      <point x="1193" y="63" type="line"/>
      <point x="1193" y="125" type="line"/>
      <point x="1256" y="125" type="line"/>
      <point x="1256" y="188" type="line"/>
    </contour>
    <contour>
      <point x="1250" y="193" type="line"/>
      <point x="1188" y="193" type="line"/>
      <point x="1188" y="131" type="line"/>
      <point x="1063" y="131" type="line"/>
      <point x="1063" y="68" type="line"/>
      <point x="256" y="68" type="line"/>
      <point x="256" y="131" type="line"/>
      <point x="131" y="131" type="line"/>
      <point x="131" y="193" type="line"/>
      <point x="68" y="193" type="line"/>
      <point x="68" y="375" type="line"/>
      <point x="131" y="375" type="line"/>
      <point x="131" y="438" type="line"/>
      <point x="256" y="438" type="line"/>
      <point x="256" y="500" type="line"/>
      <point x="1063" y="500" type="line"/>
      <point x="1063" y="438" type="line"/>
      <point x="1188" y="438" type="line"/>
      <point x="1188" y="375" type="line"/>
      <point x="1250" y="375" type="line"/>
    </contour>
    <contour>
      <point x="1193" y="250" type="line"/>
      <point x="1193" y="318" type="line"/>
      <point x="1125" y="318" type="line"/>
      <point x="1125" y="250" type="line"/>
    </contour>
    <contour>
      <point x="1006" y="125" type="line"/>
      <point x="1006" y="193" type="line"/>
      <point x="943" y="193" type="line"/>
      <point x="943" y="256" type="line"/>
      <point x="881" y="256" type="line"/>
      <point x="881" y="313" type="line"/>
      <point x="943" y="313" type="line"/>
      <point x="943" y="375" type="line"/>
      <point x="1006" y="375" type="line"/>
      <point x="1006" y="443" type="line"/>
      <point x="938" y="443" type="line"/>
      <point x="938" y="381" type="line"/>
      <point x="875" y="381" type="line"/>
      <point x="875" y="318" type="line"/>
      <point x="756" y="318" type="line"/>
      <point x="756" y="443" type="line"/>
      <point x="688" y="443" type="line"/>
      <point x="688" y="125" type="line"/>
      <point x="756" y="125" type="line"/>
      <point x="756" y="250" type="line"/>
      <point x="875" y="250" type="line"/>
      <point x="875" y="188" type="line"/>
      <point x="938" y="188" type="line"/>
      <point x="938" y="125" type="line"/>
    </contour>
    <contour>
      <point x="631" y="188" type="line"/>
      <point x="631" y="381" type="line"/>
      <point x="568" y="381" type="line"/>
      <point x="568" y="443" type="line"/>
      <point x="375" y="443" type="line"/>
      <point x="375" y="381" type="line"/>
      <point x="313" y="381" type="line"/>
      <point x="313" y="188" type="line"/>
      <point x="375" y="188" type="line"/>
      <point x="375" y="125" type="line"/>
      <point x="568" y="125" type="line"/>
      <point x="568" y="188" type="line"/>
    </contour>
    <contour>
      <point x="563" y="193" type="line"/>
      <point x="381" y="193" type="line"/>
      <point x="381" y="375" type="line"/>
      <point x="563" y="375" type="line"/>
    </contour>
    <contour>
      <point x="193" y="250" type="line"/>
      <point x="193" y="318" type="line"/>
      <point x="125" y="318" type="line"/>
      <point x="125" y="250" type="line"/>
    </contour>
  </outline>
</glyph>
<glyph name="hyphen" format="1">
  <advance width="2751"/>
  <unicode hex="002D"/>
  <outline>
    <contour>
      <point x="2631" y="188" type="line"/>
      <point x="2631" y="381" type="line"/>
      <point x="2568" y="381" type="line"/>
      <point x="2568" y="443" type="line"/>
      <point x="2506" y="443" type="line"/>
      <point x="2506" y="506" type="line"/>
      <point x="2381" y="506" type="line"/>
      <point x="2381" y="568" type="line"/>
      <point x="250" y="568" type="line"/>
      <point x="250" y="506" type="line"/>
      <point x="125" y="506" type="line"/>
      <point x="125" y="443" type="line"/>
      <point x="63" y="443" type="line"/>
      <point x="63" y="381" type="line"/>
      <point x="0" y="381" type="line"/>
      <point x="0" y="188" type="line"/>
      <point x="63" y="188" type="line"/>
      <point x="63" y="125" type="line"/>
      <point x="125" y="125" type="line"/>
      <point x="125" y="63" type="line"/>
      <point x="250" y="63" type="line"/>
      <point x="250" y="0" type="line"/>
      <point x="2381" y="0" type="line"/>
      <point x="2381" y="63" type="line"/>
      <point x="2506" y="63" type="line"/>
      <point x="2506" y="125" type="line"/>
      <point x="2568" y="125" type="line"/>
      <point x="2568" y="188" type="line"/>
    </contour>
    <contour>
      <point x="2563" y="193" type="line"/>
      <point x="2500" y="193" type="line"/>
      <point x="2500" y="131" type="line"/>
      <point x="2375" y="131" type="line"/>
      <point x="2375" y="68" type="line"/>
      <point x="256" y="68" type="line"/>
      <point x="256" y="131" type="line"/>
      <point x="131" y="131" type="line"/>
      <point x="131" y="193" type="line"/>
      <point x="68" y="193" type="line"/>
      <point x="68" y="375" type="line"/>
      <point x="131" y="375" type="line"/>
      <point x="131" y="438" type="line"/>
      <point x="256" y="438" type="line"/>
      <point x="256" y="500" type="line"/>
      <point x="2375" y="500" type="line"/>
      <point x="2375" y="438" type="line"/>
      <point x="2500" y="438" type="line"/>
      <point x="2500" y="375" type="line"/>
      <point x="2563" y="375" type="line"/>
    </contour>
    <contour>
      <point x="2506" y="250" type="line"/>
      <point x="2506" y="318" type="line"/>
      <point x="2438" y="318" type="line"/>
      <point x="2438" y="250" type="line"/>
    </contour>
    <contour>
      <point x="2318" y="125" type="line"/>
      <point x="2318" y="193" type="line"/>
      <point x="2256" y="193" type="line"/>
      <point x="2256" y="250" type="line"/>
      <point x="2318" y="250" type="line"/>
      <point x="2318" y="381" type="line"/>
      <point x="2256" y="381" type="line"/>
      <point x="2256" y="443" type="line"/>
      <point x="2063" y="443" type="line"/>
      <point x="2063" y="125" type="line"/>
      <point x="2131" y="125" type="line"/>
      <point x="2131" y="188" type="line"/>
      <point x="2250" y="188" type="line"/>
      <point x="2250" y="125" type="line"/>
    </contour>
    <contour>
      <point x="2250" y="256" type="line"/>
      <point x="2131" y="256" type="line"/>
      <point x="2131" y="375" type="line"/>
      <point x="2250" y="375" type="line"/>
    </contour>
    <contour>
      <point x="2006" y="125" type="line"/>
      <point x="2006" y="193" type="line"/>
      <point x="1881" y="193" type="line"/>
      <point x="1881" y="250" type="line"/>
      <point x="1943" y="250" type="line"/>
      <point x="1943" y="318" type="line"/>
      <point x="1881" y="318" type="line"/>
      <point x="1881" y="375" type="line"/>
      <point x="2006" y="375" type="line"/>
      <point x="2006" y="443" type="line"/>
      <point x="1813" y="443" type="line"/>
      <point x="1813" y="125" type="line"/>
    </contour>
    <contour>
      <point x="1756" y="125" type="line"/>
      <point x="1756" y="193" type="line"/>
      <point x="1631" y="193" type="line"/>
      <point x="1631" y="443" type="line"/>
      <point x="1563" y="443" type="line"/>
      <point x="1563" y="125" type="line"/>
    </contour>
    <contour>
      <point x="1506" y="188" type="line"/>
      <point x="1506" y="443" type="line"/>
      <point x="1438" y="443" type="line"/>
      <point x="1438" y="193" type="line"/>
      <point x="1318" y="193" type="line"/>
      <point x="1318" y="443" type="line"/>
      <point x="1250" y="443" type="line"/>
      <point x="1250" y="188" type="line"/>
      <point x="1313" y="188" type="line"/>
      <point x="1313" y="125" type="line"/>
      <point x="1443" y="125" type="line"/>
      <point x="1443" y="188" type="line"/>
    </contour>
    <contour>
      <point x="1193" y="125" type="line"/>
      <point x="1193" y="443" type="line"/>
      <point x="1125" y="443" type="line"/>
      <point x="1125" y="318" type="line"/>
      <point x="1068" y="318" type="line"/>
      <point x="1068" y="381" type="line"/>
      <point x="1006" y="381" type="line"/>
      <point x="1006" y="443" type="line"/>
      <point x="938" y="443" type="line"/>
      <point x="938" y="125" type="line"/>
      <point x="1006" y="125" type="line"/>
      <point x="1006" y="313" type="line"/>
      <point x="1063" y="313" type="line"/>
      <point x="1063" y="250" type="line"/>
      <point x="1125" y="250" type="line"/>
      <point x="1125" y="125" type="line"/>
    </contour>
    <contour>
      <point x="881" y="125" type="line"/>
      <point x="881" y="443" type="line"/>
      <point x="813" y="443" type="line"/>
      <point x="813" y="318" type="line"/>
      <point x="756" y="318" type="line"/>
      <point x="756" y="381" type="line"/>
      <point x="693" y="381" type="line"/>
      <point x="693" y="443" type="line"/>
      <point x="625" y="443" type="line"/>
      <point x="625" y="125" type="line"/>
      <point x="693" y="125" type="line"/>
      <point x="693" y="313" type="line"/>
      <point x="750" y="313" type="line"/>
      <point x="750" y="250" type="line"/>
      <point x="813" y="250" type="line"/>
      <point x="813" y="125" type="line"/>
    </contour>
    <contour>
      <point x="568" y="125" type="line"/>
      <point x="568" y="381" type="line"/>
      <point x="506" y="381" type="line"/>
      <point x="506" y="443" type="line"/>
      <point x="375" y="443" type="line"/>
      <point x="375" y="381" type="line"/>
      <point x="313" y="381" type="line"/>
      <point x="313" y="125" type="line"/>
      <point x="381" y="125" type="line"/>
      <point x="381" y="188" type="line"/>
      <point x="500" y="188" type="line"/>
      <point x="500" y="125" type="line"/>
    </contour>
    <contour>
      <point x="500" y="256" type="line"/>
      <point x="381" y="256" type="line"/>
      <point x="381" y="375" type="line"/>
      <point x="500" y="375" type="line"/>
    </contour>
    <contour>
      <point x="193" y="250" type="line"/>
      <point x="193" y="318" type="line"/>
      <point x="125" y="318" type="line"/>
      <point x="125" y="250" type="line"/>
    </contour>
  </outline>
</glyph>
<glyph name="period" format="1">
  <advance width="2876"/>
  <unicode hex="002E"/>
  <outline>
    <contour>
      <point x="2756" y="188" type="line"/>
      <point x="2756" y="381" type="line"/>
      <point x="2693" y="381" type="line"/>
      <point x="2693" y="443" type="line"/>
      <point x="2631" y="443" type="line"/>
      <point x="2631" y="506" type="line"/>
      <point x="2506" y="506" type="line"/>
      <point x="2506" y="568" type="line"/>
      <point x="250" y="568" type="line"/>
      <point x="250" y="506" type="line"/>
      <point x="125" y="506" type="line"/>
      <point x="125" y="443" type="line"/>
      <point x="63" y="443" type="line"/>
      <point x="63" y="381" type="line"/>
      <point x="0" y="381" type="line"/>
      <point x="0" y="188" type="line"/>
      <point x="63" y="188" type="line"/>
      <point x="63" y="125" type="line"/>
      <point x="125" y="125" type="line"/>
      <point x="125" y="63" type="line"/>
      <point x="250" y="63" type="line"/>
      <point x="250" y="0" type="line"/>
      <point x="2506" y="0" type="line"/>
      <point x="2506" y="63" type="line"/>
      <point x="2631" y="63" type="line"/>
      <point x="2631" y="125" type="line"/>
      <point x="2693" y="125" type="line"/>
      <point x="2693" y="188" type="line"/>
    </contour>
    <contour>
      <point x="2688" y="193" type="line"/>
      <point x="2625" y="193" type="line"/>
      <point x="2625" y="131" type="line"/>
      <point x="2500" y="131" type="line"/>
      <point x="2500" y="68" type="line"/>
      <point x="256" y="68" type="line"/>
      <point x="256" y="131" type="line"/>
      <point x="131" y="131" type="line"/>
      <point x="131" y="193" type="line"/>
      <point x="68" y="193" type="line"/>
      <point x="68" y="375" type="line"/>
      <point x="131" y="375" type="line"/>
      <point x="131" y="438" type="line"/>
      <point x="256" y="438" type="line"/>
      <point x="256" y="500" type="line"/>
      <point x="2500" y="500" type="line"/>
      <point x="2500" y="438" type="line"/>
      <point x="2625" y="438" type="line"/>
      <point x="2625" y="375" type="line"/>
      <point x="2688" y="375" type="line"/>
    </contour>
    <contour>
      <point x="2631" y="250" type="line"/>
      <point x="2631" y="318" type="line"/>
      <point x="2563" y="318" type="line"/>
      <point x="2563" y="250" type="line"/>
    </contour>
    <contour>
      <point x="2443" y="188" type="line"/>
      <point x="2443" y="443" type="line"/>
      <point x="2375" y="443" type="line"/>
      <point x="2375" y="193" type="line"/>
      <point x="2256" y="193" type="line"/>
      <point x="2256" y="443" type="line"/>
      <point x="2188" y="443" type="line"/>
      <point x="2188" y="188" type="line"/>
      <point x="2250" y="188" type="line"/>
      <point x="2250" y="125" type="line"/>
      <point x="2381" y="125" type="line"/>
      <point x="2381" y="188" type="line"/>
    </contour>
    <contour>
      <point x="2131" y="125" type="line"/>
      <point x="2131" y="381" type="line"/>
      <point x="2068" y="381" type="line"/>
      <point x="2068" y="443" type="line"/>
      <point x="1938" y="443" type="line"/>
      <point x="1938" y="381" type="line"/>
      <point x="1875" y="381" type="line"/>
      <point x="1875" y="125" type="line"/>
      <point x="1943" y="125" type="line"/>
      <point x="1943" y="188" type="line"/>
      <point x="2063" y="188" type="line"/>
      <point x="2063" y="125" type="line"/>
    </contour>
    <contour>
      <point x="2063" y="256" type="line"/>
      <point x="1943" y="256" type="line"/>
      <point x="1943" y="375" type="line"/>
      <point x="2063" y="375" type="line"/>
    </contour>
    <contour>
      <point x="1818" y="125" type="line"/>
      <point x="1818" y="193" type="line"/>
      <point x="1693" y="193" type="line"/>
      <point x="1693" y="250" type="line"/>
      <point x="1756" y="250" type="line"/>
      <point x="1756" y="318" type="line"/>
      <point x="1693" y="318" type="line"/>
      <point x="1693" y="375" type="line"/>
      <point x="1818" y="375" type="line"/>
      <point x="1818" y="443" type="line"/>
      <point x="1690" y="443" type="line"/>
      <point x="1625" y="443" type="line"/>
      <point x="1625" y="125" type="line"/>
      <point x="1691" y="125" type="line"/>
    </contour>
    <contour>
      <point x="1568" y="313" type="line"/>
      <point x="1568" y="443" type="line"/>
      <point x="1500" y="443" type="line"/>
      <point x="1500" y="318" type="line"/>
      <point x="1438" y="318" type="line"/>
      <point x="1438" y="193" type="line"/>
      <point x="1381" y="193" type="line"/>
      <point x="1381" y="318" type="line"/>
      <point x="1318" y="318" type="line"/>
      <point x="1318" y="443" type="line"/>
      <point x="1250" y="443" type="line"/>
      <point x="1250" y="313" type="line"/>
      <point x="1313" y="313" type="line"/>
      <point x="1313" y="188" type="line"/>
      <point x="1375" y="188" type="line"/>
      <point x="1375" y="125" type="line"/>
      <point x="1443" y="125" type="line"/>
      <point x="1443" y="188" type="line"/>
      <point x="1506" y="188" type="line"/>
      <point x="1506" y="313" type="line"/>
    </contour>
    <contour>
      <point x="1193" y="188" type="line"/>
      <point x="1193" y="443" type="line"/>
      <point x="1125" y="443" type="line"/>
      <point x="1125" y="193" type="line"/>
      <point x="1006" y="193" type="line"/>
      <point x="1006" y="443" type="line"/>
      <point x="938" y="443" type="line"/>
      <point x="938" y="188" type="line"/>
      <point x="1000" y="188" type="line"/>
      <point x="1000" y="125" type="line"/>
      <point x="1131" y="125" type="line"/>
      <point x="1131" y="188" type="line"/>
    </contour>
    <contour>
      <point x="881" y="188" type="line"/>
      <point x="881" y="381" type="line"/>
      <point x="818" y="381" type="line"/>
      <point x="818" y="443" type="line"/>
      <point x="688" y="443" type="line"/>
      <point x="688" y="381" type="line"/>
      <point x="625" y="381" type="line"/>
      <point x="625" y="188" type="line"/>
      <point x="688" y="188" type="line"/>
      <point x="688" y="125" type="line"/>
      <point x="818" y="125" type="line"/>
      <point x="818" y="188" type="line"/>
    </contour>
    <contour>
      <point x="813" y="193" type="line"/>
      <point x="693" y="193" type="line"/>
      <point x="693" y="375" type="line"/>
      <point x="813" y="375" type="line"/>
    </contour>
    <contour>
      <point x="568" y="125" type="line"/>
      <point x="568" y="443" type="line"/>
      <point x="500" y="443" type="line"/>
      <point x="500" y="318" type="line"/>
      <point x="443" y="318" type="line"/>
      <point x="443" y="381" type="line"/>
      <point x="381" y="381" type="line"/>
      <point x="381" y="443" type="line"/>
      <point x="313" y="443" type="line"/>
      <point x="313" y="125" type="line"/>
      <point x="381" y="125" type="line"/>
      <point x="381" y="313" type="line"/>
      <point x="438" y="313" type="line"/>
      <point x="438" y="250" type="line"/>
      <point x="500" y="250" type="line"/>
      <point x="500" y="125" type="line"/>
    </contour>
    <contour>
      <point x="193" y="250" type="line"/>
      <point x="193" y="318" type="line"/>
      <point x="125" y="318" type="line"/>
      <point x="125" y="250" type="line"/>
    </contour>
  </outline>
</glyph>
<glyph name="one" format="1">
  <advance width="1006"/>
  <unicode hex="0031"/>
  <outline>
    <contour>
      <point x="693" y="438" type="line"/>
      <point x="693" y="568" type="line"/>
      <point x="625" y="568" type="line"/>
      <point x="625" y="438" type="line"/>
    </contour>
    <contour>
      <point x="506" y="438" type="line"/>
      <point x="506" y="568" type="line"/>
      <point x="438" y="568" type="line"/>
      <point x="438" y="438" type="line"/>
    </contour>
    <contour>
      <point x="631" y="313" type="line"/>
      <point x="631" y="381" type="line"/>
      <point x="500" y="381" type="line"/>
      <point x="500" y="313" type="line"/>
    </contour>
    <contour>
      <point x="1006" y="-187" type="line"/>
      <point x="1006" y="-119" type="line"/>
      <point x="693" y="-119" type="line"/>
      <point x="693" y="63" type="line"/>
      <point x="756" y="63" type="line"/>
      <point x="756" y="125" type="line"/>
      <point x="818" y="125" type="line"/>
      <point x="818" y="188" type="line"/>
      <point x="881" y="188" type="line"/>
      <point x="881" y="250" type="line"/>
      <point x="943" y="250" type="line"/>
      <point x="943" y="506" type="line"/>
      <point x="881" y="506" type="line"/>
      <point x="881" y="568" type="line"/>
      <point x="818" y="568" type="line"/>
      <point x="818" y="631" type="line"/>
      <point x="756" y="631" type="line"/>
      <point x="756" y="693" type="line"/>
      <point x="693" y="693" type="line"/>
      <point x="693" y="756" type="line"/>
      <point x="375" y="756" type="line"/>
      <point x="375" y="693" type="line"/>
      <point x="250" y="693" type="line"/>
      <point x="250" y="631" type="line"/>
      <point x="188" y="631" type="line"/>
      <point x="188" y="506" type="line"/>
      <point x="125" y="506" type="line"/>
      <point x="125" y="250" type="line"/>
      <point x="188" y="250" type="line"/>
      <point x="188" y="188" type="line"/>
      <point x="250" y="188" type="line"/>
      <point x="250" y="125" type="line"/>
      <point x="313" y="125" type="line"/>
      <point x="313" y="63" type="line"/>
      <point x="375" y="63" type="line"/>
      <point x="375" y="-57" type="line"/>
      <point x="313" y="-57" type="line"/>
      <point x="313" y="-119" type="line"/>
      <point x="0" y="-119" type="line"/>
      <point x="0" y="-187" type="line"/>
      <point x="318" y="-187" type="line"/>
      <point x="318" y="-125" type="line"/>
      <point x="381" y="-125" type="line"/>
      <point x="381" y="-62" type="line"/>
      <point x="443" y="-62" type="line"/>
      <point x="443" y="68" type="line"/>
      <point x="381" y="68" type="line"/>
      <point x="381" y="131" type="line"/>
      <point x="318" y="131" type="line"/>
      <point x="318" y="193" type="line"/>
      <point x="256" y="193" type="line"/>
      <point x="256" y="256" type="line"/>
      <point x="193" y="256" type="line"/>
      <point x="193" y="500" type="line"/>
      <point x="256" y="500" type="line"/>
      <point x="256" y="625" type="line"/>
      <point x="381" y="625" type="line"/>
      <point x="381" y="688" type="line"/>
      <point x="688" y="688" type="line"/>
      <point x="688" y="625" type="line"/>
      <point x="750" y="625" type="line"/>
      <point x="750" y="563" type="line"/>
      <point x="813" y="563" type="line"/>
      <point x="813" y="500" type="line"/>
      <point x="875" y="500" type="line"/>
      <point x="875" y="256" type="line"/>
      <point x="813" y="256" type="line"/>
      <point x="813" y="193" type="line"/>
      <point x="750" y="193" type="line"/>
      <point x="750" y="131" type="line"/>
      <point x="688" y="131" type="line"/>
      <point x="688" y="68" type="line"/>
      <point x="625" y="68" type="line"/>
      <point x="625" y="-125" type="line"/>
      <point x="688" y="-125" type="line"/>
      <point x="688" y="-187" type="line"/>
    </contour>
    <contour>
      <point x="631" y="125" type="line"/>
      <point x="631" y="256" type="line"/>
      <point x="500" y="256" type="line"/>
      <point x="500" y="125" type="line"/>
    </contour>
  </outline>
</glyph>
<glyph name="six" format="1">
  <advance width="1188"/>
  <unicode hex="0036"/>
  <outline>
    <contour>
      <point x="1006" y="563" type="line"/>
      <point x="1006" y="631" type="line"/>
      <point x="943" y="631" type="line"/>
      <point x="943" y="693" type="line"/>
      <point x="818" y="693" type="line"/>
      <point x="818" y="756" type="line"/>
      <point x="693" y="756" type="line"/>
      <point x="693" y="818" type="line"/>
      <point x="375" y="818" type="line"/>
      <point x="375" y="756" type="line"/>
      <point x="250" y="756" type="line"/>
      <point x="250" y="693" type="line"/>
      <point x="125" y="693" type="line"/>
      <point x="125" y="631" type="line"/>
      <point x="63" y="631" type="line"/>
      <point x="63" y="568" type="line"/>
      <point x="0" y="568" type="line"/>
      <point x="0" y="500" type="line"/>
      <point x="68" y="500" type="line"/>
      <point x="68" y="563" type="line"/>
      <point x="131" y="563" type="line"/>
      <point x="131" y="625" type="line"/>
      <point x="256" y="625" type="line"/>
      <point x="256" y="688" type="line"/>
      <point x="381" y="688" type="line"/>
      <point x="381" y="750" type="line"/>
      <point x="688" y="750" type="line"/>
      <point x="688" y="688" type="line"/>
      <point x="813" y="688" type="line"/>
      <point x="813" y="625" type="line"/>
      <point x="938" y="625" type="line"/>
      <point x="938" y="563" type="line"/>
    </contour>
    <contour>
      <point x="1068" y="250" type="line"/>
      <point x="1068" y="381" type="line"/>
      <point x="1006" y="381" type="line"/>
      <point x="1006" y="443" type="line"/>
      <point x="943" y="443" type="line"/>
      <point x="943" y="506" type="line"/>
      <point x="818" y="506" type="line"/>
      <point x="818" y="568" type="line"/>
      <point x="693" y="568" type="line"/>
      <point x="693" y="631" type="line"/>
      <point x="375" y="631" type="line"/>
      <point x="375" y="568" type="line"/>
      <point x="250" y="568" type="line"/>
      <point x="250" y="506" type="line"/>
      <point x="188" y="506" type="line"/>
      <point x="188" y="443" type="line"/>
      <point x="125" y="443" type="line"/>
      <point x="125" y="381" type="line"/>
      <point x="63" y="381" type="line"/>
      <point x="63" y="250" type="line"/>
      <point x="125" y="250" type="line"/>
      <point x="125" y="188" type="line"/>
      <point x="188" y="188" type="line"/>
      <point x="188" y="125" type="line"/>
      <point x="250" y="125" type="line"/>
      <point x="250" y="63" type="line"/>
      <point x="375" y="63" type="line"/>
      <point x="375" y="0" type="line"/>
      <point x="693" y="0" type="line"/>
      <point x="693" y="63" type="line"/>
      <point x="818" y="63" type="line"/>
      <point x="818" y="125" type="line"/>
      <point x="943" y="125" type="line"/>
      <point x="943" y="188" type="line"/>
      <point x="1006" y="188" type="line"/>
      <point x="1006" y="250" type="line"/>
    </contour>
    <contour>
      <point x="1000" y="256" type="line"/>
      <point x="938" y="256" type="line"/>
      <point x="938" y="193" type="line"/>
      <point x="813" y="193" type="line"/>
      <point x="813" y="131" type="line"/>
      <point x="693" y="131" type="line"/>
      <point x="693" y="188" type="line"/>
      <point x="756" y="188" type="line"/>
      <point x="756" y="443" type="line"/>
      <point x="693" y="443" type="line"/>
      <point x="693" y="500" type="line"/>
      <point x="813" y="500" type="line"/>
      <point x="813" y="438" type="line"/>
      <point x="938" y="438" type="line"/>
      <point x="938" y="375" type="line"/>
      <point x="1000" y="375" type="line"/>
    </contour>
    <contour>
      <point x="625" y="256" type="line"/>
      <point x="506" y="256" type="line"/>
      <point x="506" y="375" type="line"/>
      <point x="625" y="375" type="line"/>
    </contour>
    <contour>
      <point x="688" y="68" type="line"/>
      <point x="381" y="68" type="line"/>
      <point x="381" y="131" type="line"/>
      <point x="256" y="131" type="line"/>
      <point x="256" y="193" type="line"/>
      <point x="193" y="193" type="line"/>
      <point x="193" y="256" type="line"/>
      <point x="131" y="256" type="line"/>
      <point x="131" y="375" type="line"/>
      <point x="193" y="375" type="line"/>
      <point x="193" y="438" type="line"/>
      <point x="256" y="438" type="line"/>
      <point x="256" y="500" type="line"/>
      <point x="381" y="500" type="line"/>
      <point x="381" y="563" type="line"/>
      <point x="688" y="563" type="line"/>
      <point x="688" y="506" type="line"/>
      <point x="438" y="506" type="line"/>
      <point x="438" y="443" type="line"/>
      <point x="375" y="443" type="line"/>
      <point x="375" y="188" type="line"/>
      <point x="438" y="188" type="line"/>
      <point x="438" y="125" type="line"/>
      <point x="688" y="125" type="line"/>
    </contour>
  </outline>
</glyph>
<glyph name="nine" format="1">
  <advance width="1188"/>
  <unicode hex="0039"/>
  <outline>
    <contour>
      <point x="1068" y="500" type="line"/>
      <point x="1068" y="568" type="line"/>
      <point x="1006" y="568" type="line"/>
      <point x="1006" y="631" type="line"/>
      <point x="943" y="631" type="line"/>
      <point x="943" y="693" type="line"/>
      <point x="818" y="693" type="line"/>
      <point x="818" y="756" type="line"/>
      <point x="693" y="756" type="line"/>
      <point x="693" y="818" type="line"/>
      <point x="375" y="818" type="line"/>
      <point x="375" y="756" type="line"/>
      <point x="250" y="756" type="line"/>
      <point x="250" y="693" type="line"/>
      <point x="125" y="693" type="line"/>
      <point x="125" y="631" type="line"/>
      <point x="63" y="631" type="line"/>
      <point x="63" y="563" type="line"/>
      <point x="131" y="563" type="line"/>
      <point x="131" y="625" type="line"/>
      <point x="256" y="625" type="line"/>
      <point x="256" y="688" type="line"/>
      <point x="381" y="688" type="line"/>
      <point x="381" y="750" type="line"/>
      <point x="688" y="750" type="line"/>
      <point x="688" y="688" type="line"/>
      <point x="813" y="688" type="line"/>
      <point x="813" y="625" type="line"/>
      <point x="938" y="625" type="line"/>
      <point x="938" y="563" type="line"/>
      <point x="1000" y="563" type="line"/>
      <point x="1000" y="500" type="line"/>
    </contour>
    <contour>
      <point x="1006" y="250" type="line"/>
      <point x="1006" y="381" type="line"/>
      <point x="943" y="381" type="line"/>
      <point x="943" y="443" type="line"/>
      <point x="881" y="443" type="line"/>
      <point x="881" y="506" type="line"/>
      <point x="818" y="506" type="line"/>
      <point x="818" y="568" type="line"/>
      <point x="693" y="568" type="line"/>
      <point x="693" y="631" type="line"/>
      <point x="375" y="631" type="line"/>
      <point x="375" y="568" type="line"/>
      <point x="250" y="568" type="line"/>
      <point x="250" y="506" type="line"/>
      <point x="125" y="506" type="line"/>
      <point x="125" y="443" type="line"/>
      <point x="63" y="443" type="line"/>
      <point x="63" y="381" type="line"/>
      <point x="0" y="381" type="line"/>
      <point x="0" y="250" type="line"/>
      <point x="63" y="250" type="line"/>
      <point x="63" y="188" type="line"/>
      <point x="125" y="188" type="line"/>
      <point x="125" y="125" type="line"/>
      <point x="250" y="125" type="line"/>
      <point x="250" y="63" type="line"/>
      <point x="375" y="63" type="line"/>
      <point x="375" y="0" type="line"/>
      <point x="628" y="0" type="line"/>
      <point x="693" y="0" type="line"/>
      <point x="693" y="63" type="line"/>
      <point x="818" y="63" type="line"/>
      <point x="818" y="125" type="line"/>
      <point x="881" y="125" type="line"/>
      <point x="881" y="188" type="line"/>
      <point x="943" y="188" type="line"/>
      <point x="943" y="250" type="line"/>
    </contour>
    <contour>
      <point x="875" y="381" type="line"/>
      <point x="131" y="381" type="line"/>
      <point x="131" y="438" type="line"/>
      <point x="256" y="438" type="line"/>
      <point x="256" y="500" type="line"/>
      <point x="381" y="500" type="line"/>
      <point x="381" y="563" type="line"/>
      <point x="688" y="563" type="line"/>
      <point x="688" y="500" type="line"/>
      <point x="813" y="500" type="line"/>
      <point x="813" y="438" type="line"/>
      <point x="875" y="438" type="line"/>
    </contour>
    <contour>
      <point x="938" y="256" type="line"/>
      <point x="875" y="256" type="line"/>
      <point x="875" y="193" type="line"/>
      <point x="813" y="193" type="line"/>
      <point x="813" y="131" type="line"/>
      <point x="688" y="131" type="line"/>
      <point x="688" y="68" type="line"/>
      <point x="628" y="68" type="line"/>
      <point x="381" y="68" type="line"/>
      <point x="381" y="125" type="line"/>
      <point x="631" y="125" type="line"/>
      <point x="631" y="188" type="line"/>
      <point x="693" y="188" type="line"/>
      <point x="693" y="313" type="line"/>
      <point x="881" y="313" type="line"/>
      <point x="881" y="375" type="line"/>
      <point x="938" y="375" type="line"/>
    </contour>
    <contour>
      <point x="563" y="256" type="line"/>
      <point x="443" y="256" type="line"/>
      <point x="443" y="313" type="line"/>
      <point x="563" y="313" type="line"/>
    </contour>
    <contour>
      <point x="375" y="131" type="line"/>
      <point x="256" y="131" type="line"/>
      <point x="256" y="193" type="line"/>
      <point x="131" y="193" type="line"/>
      <point x="131" y="256" type="line"/>
      <point x="68" y="256" type="line"/>
      <point x="68" y="313" type="line"/>
      <point x="313" y="313" type="line"/>
      <point x="313" y="188" type="line"/>
      <point x="375" y="188" type="line"/>
    </contour>
  </outline>
</glyph>
<glyph name="colon" format="1">
  <advance width="188"/>
  <unicode hex="003A"/>
  <outline>
    <contour>
      <point x="68" y="625" type="line"/>
      <point x="68" y="756" type="line"/>
      <point x="0" y="756" type="line"/>
      <point x="0" y="625" type="line"/>
    </contour>
    <contour>
      <point x="68" y="438" type="line"/>
      <point x="68" y="568" type="line"/>
      <point x="0" y="568" type="line"/>
      <point x="0" y="438" type="line"/>
    </contour>
    <contour>
      <point x="68" y="250" type="line"/>
      <point x="68" y="381" type="line"/>
      <point x="0" y="381" type="line"/>
      <point x="0" y="250" type="line"/>
    </contour>
    <contour>
      <point x="68" y="63" type="line"/>
      <point x="68" y="193" type="line"/>
      <point x="0" y="193" type="line"/>
      <point x="0" y="63" type="line"/>
    </contour>
    <contour>
      <point x="68" y="-125" type="line"/>
      <point x="68" y="6" type="line"/>
      <point x="0" y="6" type="line"/>
      <point x="0" y="-125" type="line"/>
    </contour>
  </outline>
</glyph>
<glyph name="semicolon" format="1">
  <advance width="188"/>
  <unicode hex="003B"/>
  <outline>
    <contour>
      <point x="68" y="750" type="line"/>
      <point x="68" y="818" type="line"/>
      <point x="0" y="818" type="line"/>
      <point x="0" y="750" type="line"/>
    </contour>
    <contour>
      <point x="68" y="625" type="line"/>
      <point x="68" y="693" type="line"/>
      <point x="0" y="693" type="line"/>
      <point x="0" y="625" type="line"/>
    </contour>
    <contour>
      <point x="68" y="500" type="line"/>
      <point x="68" y="568" type="line"/>
      <point x="0" y="568" type="line"/>
      <point x="0" y="500" type="line"/>
    </contour>
    <contour>
      <point x="68" y="375" type="line"/>
      <point x="68" y="443" type="line"/>
      <point x="0" y="443" type="line"/>
      <point x="0" y="375" type="line"/>
    </contour>
    <contour>
      <point x="68" y="250" type="line"/>
      <point x="68" y="318" type="line"/>
      <point x="0" y="318" type="line"/>
      <point x="0" y="250" type="line"/>
    </contour>
    <contour>
      <point x="68" y="125" type="line"/>
      <point x="68" y="193" type="line"/>
      <point x="0" y="193" type="line"/>
      <point x="0" y="125" type="line"/>
    </contour>
    <contour>
      <point x="68" y="0" type="line"/>
      <point x="68" y="68" type="line"/>
      <point x="0" y="68" type="line"/>
      <point x="0" y="0" type="line"/>
    </contour>
    <contour>
      <point x="68" y="-125" type="line"/>
      <point x="68" y="-57" type="line"/>
      <point x="0" y="-57" type="line"/>
      <point x="0" y="-125" type="line"/>
    </contour>
  </outline>
</glyph>
<glyph name="less" format="1">
  <advance width="188"/>
  <unicode hex="003C"/>
  <outline>
    <contour>
      <point x="68" y="625" type="line"/>
      <point x="68" y="818" type="line"/>
      <point x="0" y="818" type="line"/>
      <point x="0" y="625" type="line"/>
    </contour>
    <contour>
      <point x="68" y="375" type="line"/>
      <point x="68" y="568" type="line"/>
      <point x="0" y="568" type="line"/>
      <point x="0" y="375" type="line"/>
    </contour>
    <contour>
      <point x="68" y="125" type="line"/>
      <point x="68" y="318" type="line"/>
      <point x="0" y="318" type="line"/>
      <point x="0" y="125" type="line"/>
    </contour>
    <contour>
      <point x="68" y="-125" type="line"/>
      <point x="68" y="68" type="line"/>
      <point x="0" y="68" type="line"/>
      <point x="0" y="-125" type="line"/>
    </contour>
  </outline>
</glyph>
<glyph name="equal" format="1">
  <advance width="1001"/>
  <unicode hex="003D"/>
  <outline>
    <contour>
      <point x="881" y="313" type="line"/>
      <point x="881" y="381" type="line"/>
      <point x="750" y="381" type="line"/>
      <point x="750" y="313" type="line"/>
    </contour>
    <contour>
      <point x="693" y="313" type="line"/>
      <point x="693" y="381" type="line"/>
      <point x="563" y="381" type="line"/>
      <point x="563" y="313" type="line"/>
    </contour>
    <contour>
      <point x="506" y="313" type="line"/>
      <point x="506" y="381" type="line"/>
      <point x="375" y="381" type="line"/>
      <point x="375" y="313" type="line"/>
    </contour>
    <contour>
      <point x="318" y="313" type="line"/>
      <point x="318" y="381" type="line"/>
      <point x="188" y="381" type="line"/>
      <point x="188" y="313" type="line"/>
    </contour>
    <contour>
      <point x="131" y="313" type="line"/>
      <point x="131" y="381" type="line"/>
      <point x="0" y="381" type="line"/>
      <point x="0" y="313" type="line"/>
    </contour>
  </outline>
</glyph>
<glyph name="greater" format="1">
  <advance width="1063"/>
  <unicode hex="003E"/>
  <outline>
    <contour>
      <point x="943" y="313" type="line"/>
      <point x="943" y="381" type="line"/>
      <point x="875" y="381" type="line"/>
      <point x="875" y="313" type="line"/>
    </contour>
    <contour>
      <point x="818" y="313" type="line"/>
      <point x="818" y="381" type="line"/>
      <point x="750" y="381" type="line"/>
      <point x="750" y="313" type="line"/>
    </contour>
    <contour>
      <point x="693" y="313" type="line"/>
      <point x="693" y="381" type="line"/>
      <point x="625" y="381" type="line"/>
      <point x="625" y="313" type="line"/>
    </contour>
    <contour>
      <point x="568" y="313" type="line"/>
      <point x="568" y="381" type="line"/>
      <point x="500" y="381" type="line"/>
      <point x="500" y="313" type="line"/>
    </contour>
    <contour>
      <point x="443" y="313" type="line"/>
      <point x="443" y="381" type="line"/>
      <point x="375" y="381" type="line"/>
      <point x="375" y="313" type="line"/>
    </contour>
    <contour>
      <point x="318" y="313" type="line"/>
      <point x="318" y="381" type="line"/>
      <point x="250" y="381" type="line"/>
      <point x="250" y="313" type="line"/>
    </contour>
    <contour>
      <point x="193" y="313" type="line"/>
      <point x="193" y="381" type="line"/>
      <point x="125" y="381" type="line"/>
      <point x="125" y="313" type="line"/>
    </contour>
    <contour>
      <point x="68" y="313" type="line"/>
      <point x="68" y="381" type="line"/>
      <point x="0" y="381" type="line"/>
      <point x="0" y="313" type="line"/>
    </contour>
  </outline>
</glyph>
<glyph name="question" format="1">
  <advance width="1063"/>
  <unicode hex="003F"/>
  <outline>
    <contour>
      <point x="943" y="313" type="line"/>
      <point x="943" y="381" type="line"/>
      <point x="750" y="381" type="line"/>
      <point x="750" y="313" type="line"/>
    </contour>
    <contour>
      <point x="693" y="313" type="line"/>
      <point x="693" y="381" type="line"/>
      <point x="500" y="381" type="line"/>
      <point x="500" y="313" type="line"/>
    </contour>
    <contour>
      <point x="443" y="313" type="line"/>
      <point x="443" y="381" type="line"/>
      <point x="250" y="381" type="line"/>
      <point x="250" y="313" type="line"/>
    </contour>
    <contour>
      <point x="193" y="313" type="line"/>
      <point x="193" y="381" type="line"/>
      <point x="0" y="381" type="line"/>
      <point x="0" y="313" type="line"/>
    </contour>
  </outline>
</glyph>
<glyph name="at" format="1">
  <advance width="876"/>
  <unicode hex="0040"/>
  <outline>
    <contour>
      <point x="756" y="125" type="line"/>
      <point x="756" y="568" type="line"/>
      <point x="693" y="568" type="line"/>
      <point x="693" y="693" type="line"/>
      <point x="631" y="693" type="line"/>
      <point x="631" y="756" type="line"/>
      <point x="125" y="756" type="line"/>
      <point x="125" y="693" type="line"/>
      <point x="63" y="693" type="line"/>
      <point x="63" y="568" type="line"/>
      <point x="0" y="568" type="line"/>
      <point x="0" y="63" type="line"/>
      <point x="63" y="63" type="line"/>
      <point x="63" y="-62" type="line"/>
      <point x="125" y="-62" type="line"/>
      <point x="125" y="-125" type="line"/>
      <point x="568" y="-125" type="line"/>
      <point x="568" y="-57" type="line"/>
      <point x="131" y="-57" type="line"/>
      <point x="131" y="68" type="line"/>
      <point x="68" y="68" type="line"/>
      <point x="68" y="563" type="line"/>
      <point x="131" y="563" type="line"/>
      <point x="131" y="688" type="line"/>
      <point x="625" y="688" type="line"/>
      <point x="625" y="563" type="line"/>
      <point x="688" y="563" type="line"/>
      <point x="688" y="131" type="line"/>
      <point x="568" y="131" type="line"/>
      <point x="568" y="506" type="line"/>
      <point x="506" y="506" type="line"/>
      <point x="506" y="568" type="line"/>
      <point x="250" y="568" type="line"/>
      <point x="250" y="506" type="line"/>
      <point x="188" y="506" type="line"/>
      <point x="188" y="438" type="line"/>
      <point x="256" y="438" type="line"/>
      <point x="256" y="500" type="line"/>
      <point x="500" y="500" type="line"/>
      <point x="500" y="381" type="line"/>
      <point x="250" y="381" type="line"/>
      <point x="250" y="318" type="line"/>
      <point x="188" y="318" type="line"/>
      <point x="188" y="125" type="line"/>
      <point x="250" y="125" type="line"/>
      <point x="250" y="63" type="line"/>
      <point x="506" y="63" type="line"/>
      <point x="506" y="125" type="line"/>
      <point x="563" y="125" type="line"/>
      <point x="563" y="63" type="line"/>
      <point x="693" y="63" type="line"/>
      <point x="693" y="125" type="line"/>
    </contour>
    <contour>
      <point x="500" y="131" type="line"/>
      <point x="256" y="131" type="line"/>
      <point x="256" y="313" type="line"/>
      <point x="500" y="313" type="line"/>
    </contour>
  </outline>
</glyph>
<glyph name="B" format="1">
  <advance width="1063"/>
  <unicode hex="0042"/>
  <outline>
    <contour>
      <point x="943" y="188" type="line"/>
      <point x="943" y="506" type="line"/>
      <point x="881" y="506" type="line"/>
      <point x="881" y="631" type="line"/>
      <point x="818" y="631" type="line"/>
      <point x="818" y="693" type="line"/>
      <point x="756" y="693" type="line"/>
      <point x="756" y="756" type="line"/>
      <point x="631" y="756" type="line"/>
      <point x="631" y="818" type="line"/>
      <point x="313" y="818" type="line"/>
      <point x="313" y="756" type="line"/>
      <point x="188" y="756" type="line"/>
      <point x="188" y="693" type="line"/>
      <point x="125" y="693" type="line"/>
      <point x="125" y="631" type="line"/>
      <point x="63" y="631" type="line"/>
      <point x="63" y="506" type="line"/>
      <point x="0" y="506" type="line"/>
      <point x="0" y="188" type="line"/>
      <point x="63" y="188" type="line"/>
      <point x="63" y="63" type="line"/>
      <point x="125" y="63" type="line"/>
      <point x="125" y="0" type="line"/>
      <point x="188" y="0" type="line"/>
      <point x="188" y="-62" type="line"/>
      <point x="313" y="-62" type="line"/>
      <point x="313" y="-125" type="line"/>
      <point x="631" y="-125" type="line"/>
      <point x="631" y="-62" type="line"/>
      <point x="756" y="-62" type="line"/>
      <point x="756" y="0" type="line"/>
      <point x="818" y="0" type="line"/>
      <point x="818" y="63" type="line"/>
      <point x="881" y="63" type="line"/>
      <point x="881" y="188" type="line"/>
    </contour>
    <contour>
      <point x="875" y="193" type="line"/>
      <point x="813" y="193" type="line"/>
      <point x="813" y="68" type="line"/>
      <point x="750" y="68" type="line"/>
      <point x="750" y="6" type="line"/>
      <point x="625" y="6" type="line"/>
      <point x="625" y="-57" type="line"/>
      <point x="318" y="-57" type="line"/>
      <point x="318" y="6" type="line"/>
      <point x="193" y="6" type="line"/>
      <point x="193" y="63" type="line"/>
      <point x="256" y="63" type="line"/>
      <point x="256" y="125" type="line"/>
      <point x="500" y="125" type="line"/>
      <point x="500" y="63" type="line"/>
      <point x="568" y="63" type="line"/>
      <point x="568" y="131" type="line"/>
      <point x="506" y="131" type="line"/>
      <point x="506" y="193" type="line"/>
      <point x="250" y="193" type="line"/>
      <point x="250" y="131" type="line"/>
      <point x="188" y="131" type="line"/>
      <point x="188" y="68" type="line"/>
      <point x="131" y="68" type="line"/>
      <point x="131" y="193" type="line"/>
      <point x="68" y="193" type="line"/>
      <point x="68" y="500" type="line"/>
      <point x="131" y="500" type="line"/>
      <point x="131" y="625" type="line"/>
      <point x="193" y="625" type="line"/>
      <point x="193" y="688" type="line"/>
      <point x="318" y="688" type="line"/>
      <point x="318" y="750" type="line"/>
      <point x="625" y="750" type="line"/>
      <point x="625" y="688" type="line"/>
      <point x="750" y="688" type="line"/>
      <point x="750" y="625" type="line"/>
      <point x="813" y="625" type="line"/>
      <point x="813" y="500" type="line"/>
      <point x="875" y="500" type="line"/>
    </contour>
    <contour>
      <point x="631" y="438" type="line"/>
      <point x="631" y="568" type="line"/>
      <point x="500" y="568" type="line"/>
      <point x="500" y="438" type="line"/>
    </contour>
    <contour>
      <point x="318" y="438" type="line"/>
      <point x="318" y="568" type="line"/>
      <point x="188" y="568" type="line"/>
      <point x="188" y="438" type="line"/>
    </contour>
    <contour>
      <point x="443" y="313" type="line"/>
      <point x="443" y="381" type="line"/>
      <point x="313" y="381" type="line"/>
      <point x="313" y="313" type="line"/>
    </contour>
  </outline>
</glyph>
<glyph name="G" format="1">
  <advance width="1063"/>
  <unicode hex="0047"/>
  <outline>
    <contour>
      <point x="943" y="188" type="line"/>
      <point x="943" y="506" type="line"/>
      <point x="881" y="506" type="line"/>
      <point x="881" y="631" type="line"/>
      <point x="818" y="631" type="line"/>
      <point x="818" y="693" type="line"/>
      <point x="756" y="693" type="line"/>
      <point x="756" y="756" type="line"/>
      <point x="631" y="756" type="line"/>
      <point x="631" y="818" type="line"/>
      <point x="313" y="818" type="line"/>
      <point x="313" y="756" type="line"/>
      <point x="188" y="756" type="line"/>
      <point x="188" y="693" type="line"/>
      <point x="125" y="693" type="line"/>
      <point x="125" y="631" type="line"/>
      <point x="63" y="631" type="line"/>
      <point x="63" y="506" type="line"/>
      <point x="0" y="506" type="line"/>
      <point x="0" y="188" type="line"/>
      <point x="63" y="188" type="line"/>
      <point x="63" y="63" type="line"/>
      <point x="125" y="63" type="line"/>
      <point x="125" y="0" type="line"/>
      <point x="188" y="0" type="line"/>
      <point x="188" y="-62" type="line"/>
      <point x="313" y="-62" type="line"/>
      <point x="313" y="-125" type="line"/>
      <point x="631" y="-125" type="line"/>
      <point x="631" y="-62" type="line"/>
      <point x="756" y="-62" type="line"/>
      <point x="756" y="0" type="line"/>
      <point x="818" y="0" type="line"/>
      <point x="818" y="63" type="line"/>
      <point x="881" y="63" type="line"/>
      <point x="881" y="188" type="line"/>
    </contour>
    <contour>
      <point x="875" y="193" type="line"/>
      <point x="813" y="193" type="line"/>
      <point x="813" y="68" type="line"/>
      <point x="750" y="68" type="line"/>
      <point x="750" y="6" type="line"/>
      <point x="625" y="6" type="line"/>
      <point x="625" y="-57" type="line"/>
      <point x="318" y="-57" type="line"/>
      <point x="318" y="0" type="line"/>
      <point x="506" y="0" type="line"/>
      <point x="506" y="63" type="line"/>
      <point x="568" y="63" type="line"/>
      <point x="568" y="188" type="line"/>
      <point x="631" y="188" type="line"/>
      <point x="631" y="250" type="line"/>
      <point x="693" y="250" type="line"/>
      <point x="693" y="318" type="line"/>
      <point x="625" y="318" type="line"/>
      <point x="625" y="256" type="line"/>
      <point x="193" y="256" type="line"/>
      <point x="193" y="318" type="line"/>
      <point x="125" y="318" type="line"/>
      <point x="125" y="250" type="line"/>
      <point x="188" y="250" type="line"/>
      <point x="188" y="188" type="line"/>
      <point x="250" y="188" type="line"/>
      <point x="250" y="63" type="line"/>
      <point x="313" y="63" type="line"/>
      <point x="313" y="6" type="line"/>
      <point x="193" y="6" type="line"/>
      <point x="193" y="68" type="line"/>
      <point x="131" y="68" type="line"/>
      <point x="131" y="193" type="line"/>
      <point x="68" y="193" type="line"/>
      <point x="68" y="500" type="line"/>
      <point x="131" y="500" type="line"/>
      <point x="131" y="625" type="line"/>
      <point x="193" y="625" type="line"/>
      <point x="193" y="688" type="line"/>
      <point x="318" y="688" type="line"/>
      <point x="318" y="750" type="line"/>
      <point x="625" y="750" type="line"/>
      <point x="625" y="688" type="line"/>
      <point x="750" y="688" type="line"/>
      <point x="750" y="625" type="line"/>
      <point x="813" y="625" type="line"/>
      <point x="813" y="500" type="line"/>
      <point x="875" y="500" type="line"/>
    </contour>
    <contour>
      <point x="500" y="68" type="line"/>
      <point x="443" y="68" type="line"/>
      <point x="443" y="188" type="line"/>
      <point x="500" y="188" type="line"/>
    </contour>
    <contour>
      <point x="375" y="68" type="line"/>
      <point x="318" y="68" type="line"/>
      <point x="318" y="188" type="line"/>
      <point x="375" y="188" type="line"/>
    </contour>
    <contour>
      <point x="631" y="438" type="line"/>
      <point x="631" y="506" type="line"/>
      <point x="500" y="506" type="line"/>
      <point x="500" y="438" type="line"/>
    </contour>
    <contour>
      <point x="318" y="438" type="line"/>
      <point x="318" y="506" type="line"/>
      <point x="188" y="506" type="line"/>
      <point x="188" y="438" type="line"/>
    </contour>
    <contour>
      <point x="443" y="313" type="line"/>
      <point x="443" y="381" type="line"/>
      <point x="313" y="381" type="line"/>
      <point x="313" y="313" type="line"/>
    </contour>
  </outline>
</glyph>
<glyph name="K" format="1">
  <advance width="1063"/>
  <unicode hex="004B"/>
  <outline>
    <contour>
      <point x="943" y="63" type="line"/>
      <point x="943" y="131" type="line"/>
      <point x="875" y="131" type="line"/>
      <point x="875" y="68" type="line"/>
      <point x="631" y="68" type="line"/>
      <point x="631" y="131" type="line"/>
      <point x="506" y="131" type="line"/>
      <point x="506" y="193" type="line"/>
      <point x="443" y="193" type="line"/>
      <point x="443" y="250" type="line"/>
      <point x="506" y="250" type="line"/>
      <point x="506" y="313" type="line"/>
      <point x="568" y="313" type="line"/>
      <point x="568" y="381" type="line"/>
      <point x="506" y="381" type="line"/>
      <point x="506" y="443" type="line"/>
      <point x="443" y="443" type="line"/>
      <point x="443" y="563" type="line"/>
      <point x="568" y="563" type="line"/>
      <point x="568" y="625" type="line"/>
      <point x="756" y="625" type="line"/>
      <point x="756" y="693" type="line"/>
      <point x="631" y="693" type="line"/>
      <point x="631" y="756" type="line"/>
      <point x="313" y="756" type="line"/>
      <point x="313" y="693" type="line"/>
      <point x="188" y="693" type="line"/>
      <point x="188" y="631" type="line"/>
      <point x="125" y="631" type="line"/>
      <point x="125" y="568" type="line"/>
      <point x="63" y="568" type="line"/>
      <point x="63" y="443" type="line"/>
      <point x="0" y="443" type="line"/>
      <point x="0" y="125" type="line"/>
      <point x="63" y="125" type="line"/>
      <point x="63" y="0" type="line"/>
      <point x="125" y="0" type="line"/>
      <point x="125" y="-62" type="line"/>
      <point x="188" y="-62" type="line"/>
      <point x="188" y="-125" type="line"/>
      <point x="313" y="-125" type="line"/>
      <point x="313" y="-187" type="line"/>
      <point x="631" y="-187" type="line"/>
      <point x="631" y="-125" type="line"/>
      <point x="756" y="-125" type="line"/>
      <point x="756" y="-62" type="line"/>
      <point x="818" y="-62" type="line"/>
      <point x="818" y="0" type="line"/>
      <point x="881" y="0" type="line"/>
      <point x="881" y="63" type="line"/>
    </contour>
    <contour>
      <point x="750" y="-57" type="line"/>
      <point x="625" y="-57" type="line"/>
      <point x="625" y="-119" type="line"/>
      <point x="318" y="-119" type="line"/>
      <point x="318" y="-57" type="line"/>
      <point x="193" y="-57" type="line"/>
      <point x="193" y="6" type="line"/>
      <point x="131" y="6" type="line"/>
      <point x="131" y="131" type="line"/>
      <point x="68" y="131" type="line"/>
      <point x="68" y="438" type="line"/>
      <point x="131" y="438" type="line"/>
      <point x="131" y="563" type="line"/>
      <point x="193" y="563" type="line"/>
      <point x="193" y="625" type="line"/>
      <point x="318" y="625" type="line"/>
      <point x="318" y="688" type="line"/>
      <point x="563" y="688" type="line"/>
      <point x="563" y="631" type="line"/>
      <point x="438" y="631" type="line"/>
      <point x="438" y="568" type="line"/>
      <point x="375" y="568" type="line"/>
      <point x="375" y="438" type="line"/>
      <point x="438" y="438" type="line"/>
      <point x="438" y="375" type="line"/>
      <point x="500" y="375" type="line"/>
      <point x="500" y="318" type="line"/>
      <point x="438" y="318" type="line"/>
      <point x="438" y="256" type="line"/>
      <point x="375" y="256" type="line"/>
      <point x="375" y="188" type="line"/>
      <point x="438" y="188" type="line"/>
      <point x="438" y="131" type="line"/>
      <point x="375" y="131" type="line"/>
      <point x="375" y="68" type="line"/>
      <point x="313" y="68" type="line"/>
      <point x="313" y="0" type="line"/>
      <point x="381" y="0" type="line"/>
      <point x="381" y="63" type="line"/>
      <point x="443" y="63" type="line"/>
      <point x="443" y="125" type="line"/>
      <point x="500" y="125" type="line"/>
      <point x="500" y="63" type="line"/>
      <point x="625" y="63" type="line"/>
      <point x="625" y="0" type="line"/>
      <point x="750" y="0" type="line"/>
    </contour>
    <contour>
      <point x="318" y="375" type="line"/>
      <point x="318" y="506" type="line"/>
      <point x="250" y="506" type="line"/>
      <point x="250" y="443" type="line"/>
      <point x="188" y="443" type="line"/>
      <point x="188" y="375" type="line"/>
    </contour>
  </outline>
</glyph>
<glyph name="L" format="1">
  <advance width="688"/>
  <unicode hex="004C"/>
  <outline>
    <contour>
      <point x="568" y="-187" type="line"/>
      <point x="568" y="-119" type="line"/>
      <point x="443" y="-119" type="line"/>
      <point x="443" y="68" type="line"/>
      <point x="381" y="68" type="line"/>
      <point x="381" y="375" type="line"/>
      <point x="438" y="375" type="line"/>
      <point x="438" y="188" type="line"/>
      <point x="500" y="188" type="line"/>
      <point x="500" y="125" type="line"/>
      <point x="568" y="125" type="line"/>
      <point x="568" y="193" type="line"/>
      <point x="506" y="193" type="line"/>
      <point x="506" y="506" type="line"/>
      <point x="318" y="506" type="line"/>
      <point x="318" y="563" type="line"/>
      <point x="381" y="563" type="line"/>
      <point x="381" y="625" type="line"/>
      <point x="443" y="625" type="line"/>
      <point x="443" y="756" type="line"/>
      <point x="381" y="756" type="line"/>
      <point x="381" y="818" type="line"/>
      <point x="188" y="818" type="line"/>
      <point x="188" y="756" type="line"/>
      <point x="125" y="756" type="line"/>
      <point x="125" y="625" type="line"/>
      <point x="188" y="625" type="line"/>
      <point x="188" y="563" type="line"/>
      <point x="250" y="563" type="line"/>
      <point x="250" y="506" type="line"/>
      <point x="63" y="506" type="line"/>
      <point x="63" y="193" type="line"/>
      <point x="0" y="193" type="line"/>
      <point x="0" y="125" type="line"/>
      <point x="68" y="125" type="line"/>
      <point x="68" y="188" type="line"/>
      <point x="131" y="188" type="line"/>
      <point x="131" y="375" type="line"/>
      <point x="188" y="375" type="line"/>
      <point x="188" y="68" type="line"/>
      <point x="125" y="68" type="line"/>
      <point x="125" y="-119" type="line"/>
      <point x="0" y="-119" type="line"/>
      <point x="0" y="-187" type="line"/>
      <point x="193" y="-187" type="line"/>
      <point x="193" y="63" type="line"/>
      <point x="256" y="63" type="line"/>
      <point x="256" y="125" type="line"/>
      <point x="313" y="125" type="line"/>
      <point x="313" y="63" type="line"/>
      <point x="375" y="63" type="line"/>
      <point x="375" y="-187" type="line"/>
    </contour>
  </outline>
</glyph>
<glyph name="M" format="1">
  <advance width="813"/>
  <unicode hex="004D"/>
  <outline>
    <contour>
      <point x="693" y="125" type="line"/>
      <point x="693" y="193" type="line"/>
      <point x="631" y="193" type="line"/>
      <point x="631" y="318" type="line"/>
      <point x="568" y="318" type="line"/>
      <point x="568" y="443" type="line"/>
      <point x="506" y="443" type="line"/>
      <point x="506" y="506" type="line"/>
      <point x="381" y="506" type="line"/>
      <point x="381" y="563" type="line"/>
      <point x="443" y="563" type="line"/>
      <point x="443" y="625" type="line"/>
      <point x="506" y="625" type="line"/>
      <point x="506" y="756" type="line"/>
      <point x="443" y="756" type="line"/>
      <point x="443" y="818" type="line"/>
      <point x="250" y="818" type="line"/>
      <point x="250" y="756" type="line"/>
      <point x="188" y="756" type="line"/>
      <point x="188" y="625" type="line"/>
      <point x="250" y="625" type="line"/>
      <point x="250" y="563" type="line"/>
      <point x="313" y="563" type="line"/>
      <point x="313" y="506" type="line"/>
      <point x="188" y="506" type="line"/>
      <point x="188" y="443" type="line"/>
      <point x="125" y="443" type="line"/>
      <point x="125" y="318" type="line"/>
      <point x="63" y="318" type="line"/>
      <point x="63" y="193" type="line"/>
      <point x="0" y="193" type="line"/>
      <point x="0" y="125" type="line"/>
      <point x="68" y="125" type="line"/>
      <point x="68" y="188" type="line"/>
      <point x="131" y="188" type="line"/>
      <point x="131" y="313" type="line"/>
      <point x="193" y="313" type="line"/>
      <point x="193" y="438" type="line"/>
      <point x="250" y="438" type="line"/>
      <point x="250" y="256" type="line"/>
      <point x="188" y="256" type="line"/>
      <point x="188" y="68" type="line"/>
      <point x="125" y="68" type="line"/>
      <point x="125" y="0" type="line"/>
      <point x="250" y="0" type="line"/>
      <point x="250" y="-119" type="line"/>
      <point x="125" y="-119" type="line"/>
      <point x="125" y="-187" type="line"/>
      <point x="318" y="-187" type="line"/>
      <point x="318" y="0" type="line"/>
      <point x="375" y="0" type="line"/>
      <point x="375" y="-187" type="line"/>
      <point x="568" y="-187" type="line"/>
      <point x="568" y="-119" type="line"/>
      <point x="443" y="-119" type="line"/>
      <point x="443" y="0" type="line"/>
      <point x="568" y="0" type="line"/>
      <point x="568" y="68" type="line"/>
      <point x="506" y="68" type="line"/>
      <point x="506" y="256" type="line"/>
      <point x="443" y="256" type="line"/>
      <point x="443" y="438" type="line"/>
      <point x="500" y="438" type="line"/>
      <point x="500" y="313" type="line"/>
      <point x="563" y="313" type="line"/>
      <point x="563" y="188" type="line"/>
      <point x="625" y="188" type="line"/>
      <point x="625" y="125" type="line"/>
    </contour>
  </outline>
</glyph>
<glyph name="N" format="1">
  <advance width="938"/>
  <unicode hex="004E"/>
  <outline>
    <contour>
      <point x="818" y="188" type="line"/>
      <point x="818" y="631" type="line"/>
      <point x="756" y="631" type="line"/>
      <point x="756" y="693" type="line"/>
      <point x="693" y="693" type="line"/>
      <point x="693" y="756" type="line"/>
      <point x="568" y="756" type="line"/>
      <point x="568" y="818" type="line"/>
      <point x="250" y="818" type="line"/>
      <point x="250" y="756" type="line"/>
      <point x="125" y="756" type="line"/>
      <point x="125" y="693" type="line"/>
      <point x="63" y="693" type="line"/>
      <point x="63" y="631" type="line"/>
      <point x="0" y="631" type="line"/>
      <point x="0" y="188" type="line"/>
      <point x="63" y="188" type="line"/>
      <point x="63" y="125" type="line"/>
      <point x="125" y="125" type="line"/>
      <point x="125" y="63" type="line"/>
      <point x="250" y="63" type="line"/>
      <point x="250" y="0" type="line"/>
      <point x="568" y="0" type="line"/>
      <point x="568" y="63" type="line"/>
      <point x="693" y="63" type="line"/>
      <point x="693" y="125" type="line"/>
      <point x="756" y="125" type="line"/>
      <point x="756" y="188" type="line"/>
    </contour>
    <contour>
      <point x="750" y="193" type="line"/>
      <point x="688" y="193" type="line"/>
      <point x="688" y="131" type="line"/>
      <point x="563" y="131" type="line"/>
      <point x="563" y="68" type="line"/>
      <point x="256" y="68" type="line"/>
      <point x="256" y="131" type="line"/>
      <point x="131" y="131" type="line"/>
      <point x="131" y="193" type="line"/>
      <point x="68" y="193" type="line"/>
      <point x="68" y="625" type="line"/>
      <point x="131" y="625" type="line"/>
      <point x="131" y="688" type="line"/>
      <point x="256" y="688" type="line"/>
      <point x="256" y="750" type="line"/>
      <point x="563" y="750" type="line"/>
      <point x="563" y="688" type="line"/>
      <point x="688" y="688" type="line"/>
      <point x="688" y="625" type="line"/>
      <point x="750" y="625" type="line"/>
    </contour>
    <contour>
      <point x="443" y="375" type="line"/>
      <point x="443" y="693" type="line"/>
      <point x="375" y="693" type="line"/>
      <point x="375" y="443" type="line"/>
      <point x="250" y="443" type="line"/>
      <point x="250" y="375" type="line"/>
    </contour>
  </outline>
</glyph>
<glyph name="O" format="1">
  <advance width="938"/>
  <unicode hex="004F"/>
  <outline>
    <contour>
      <point x="818" y="188" type="line"/>
      <point x="818" y="631" type="line"/>
      <point x="756" y="631" type="line"/>
      <point x="756" y="693" type="line"/>
      <point x="693" y="693" type="line"/>
      <point x="693" y="756" type="line"/>
      <point x="568" y="756" type="line"/>
      <point x="568" y="818" type="line"/>
      <point x="250" y="818" type="line"/>
      <point x="250" y="756" type="line"/>
      <point x="125" y="756" type="line"/>
      <point x="125" y="693" type="line"/>
      <point x="63" y="693" type="line"/>
      <point x="63" y="631" type="line"/>
      <point x="0" y="631" type="line"/>
      <point x="0" y="188" type="line"/>
      <point x="63" y="188" type="line"/>
      <point x="63" y="125" type="line"/>
      <point x="125" y="125" type="line"/>
      <point x="125" y="63" type="line"/>
      <point x="250" y="63" type="line"/>
      <point x="250" y="0" type="line"/>
      <point x="568" y="0" type="line"/>
      <point x="568" y="63" type="line"/>
      <point x="693" y="63" type="line"/>
      <point x="693" y="125" type="line"/>
      <point x="756" y="125" type="line"/>
      <point x="756" y="188" type="line"/>
    </contour>
    <contour>
      <point x="438" y="381" type="line"/>
      <point x="193" y="381" type="line"/>
      <point x="193" y="438" type="line"/>
      <point x="381" y="438" type="line"/>
      <point x="381" y="688" type="line"/>
      <point x="438" y="688" type="line"/>
    </contour>
  </outline>
</glyph>
<glyph name="P" format="1">
  <advance width="938"/>
  <unicode hex="0050"/>
  <outline>
    <contour>
      <point x="818" y="188" type="line"/>
      <point x="818" y="631" type="line"/>
      <point x="756" y="631" type="line"/>
      <point x="756" y="693" type="line"/>
      <point x="693" y="693" type="line"/>
      <point x="693" y="756" type="line"/>
      <point x="568" y="756" type="line"/>
      <point x="568" y="818" type="line"/>
      <point x="250" y="818" type="line"/>
      <point x="250" y="756" type="line"/>
      <point x="125" y="756" type="line"/>
      <point x="125" y="693" type="line"/>
      <point x="63" y="693" type="line"/>
      <point x="63" y="631" type="line"/>
      <point x="0" y="631" type="line"/>
      <point x="0" y="188" type="line"/>
      <point x="63" y="188" type="line"/>
      <point x="63" y="125" type="line"/>
      <point x="125" y="125" type="line"/>
      <point x="125" y="63" type="line"/>
      <point x="250" y="63" type="line"/>
      <point x="250" y="0" type="line"/>
      <point x="568" y="0" type="line"/>
      <point x="568" y="63" type="line"/>
      <point x="693" y="63" type="line"/>
      <point x="693" y="125" type="line"/>
      <point x="756" y="125" type="line"/>
      <point x="756" y="188" type="line"/>
    </contour>
    <contour>
      <point x="750" y="193" type="line"/>
      <point x="688" y="193" type="line"/>
      <point x="688" y="131" type="line"/>
      <point x="563" y="131" type="line"/>
      <point x="563" y="68" type="line"/>
      <point x="256" y="68" type="line"/>
      <point x="256" y="131" type="line"/>
      <point x="131" y="131" type="line"/>
      <point x="131" y="193" type="line"/>
      <point x="68" y="193" type="line"/>
      <point x="68" y="625" type="line"/>
      <point x="131" y="625" type="line"/>
      <point x="131" y="688" type="line"/>
      <point x="256" y="688" type="line"/>
      <point x="256" y="750" type="line"/>
      <point x="563" y="750" type="line"/>
      <point x="563" y="688" type="line"/>
      <point x="688" y="688" type="line"/>
      <point x="688" y="625" type="line"/>
      <point x="750" y="625" type="line"/>
    </contour>
    <contour>
      <point x="568" y="438" type="line"/>
      <point x="568" y="568" type="line"/>
      <point x="506" y="568" type="line"/>
      <point x="506" y="631" type="line"/>
      <point x="313" y="631" type="line"/>
      <point x="313" y="568" type="line"/>
      <point x="250" y="568" type="line"/>
      <point x="250" y="500" type="line"/>
      <point x="318" y="500" type="line"/>
      <point x="318" y="563" type="line"/>
      <point x="500" y="563" type="line"/>
      <point x="500" y="443" type="line"/>
      <point x="375" y="443" type="line"/>
      <point x="375" y="313" type="line"/>
      <point x="443" y="313" type="line"/>
      <point x="443" y="375" type="line"/>
      <point x="506" y="375" type="line"/>
      <point x="506" y="438" type="line"/>
    </contour>
    <contour>
      <point x="443" y="188" type="line"/>
      <point x="443" y="256" type="line"/>
      <point x="375" y="256" type="line"/>
      <point x="375" y="188" type="line"/>
    </contour>
  </outline>
</glyph>
<glyph name="R" format="1">
  <advance width="938"/>
  <unicode hex="0052"/>
  <outline>
    <contour>
      <point x="818" y="0" type="line"/>
      <point x="818" y="68" type="line"/>
      <point x="693" y="68" type="line"/>
      <point x="693" y="256" type="line"/>
      <point x="631" y="256" type="line"/>
      <point x="631" y="318" type="line"/>
      <point x="568" y="318" type="line"/>
      <point x="568" y="381" type="line"/>
      <point x="506" y="381" type="line"/>
      <point x="506" y="438" type="line"/>
      <point x="568" y="438" type="line"/>
      <point x="568" y="500" type="line"/>
      <point x="631" y="500" type="line"/>
      <point x="631" y="563" type="line"/>
      <point x="693" y="563" type="line"/>
      <point x="693" y="750" type="line"/>
      <point x="818" y="750" type="line"/>
      <point x="818" y="818" type="line"/>
      <point x="0" y="818" type="line"/>
      <point x="0" y="750" type="line"/>
      <point x="125" y="750" type="line"/>
      <point x="125" y="563" type="line"/>
      <point x="188" y="563" type="line"/>
      <point x="188" y="500" type="line"/>
      <point x="250" y="500" type="line"/>
      <point x="250" y="438" type="line"/>
      <point x="313" y="438" type="line"/>
      <point x="313" y="381" type="line"/>
      <point x="250" y="381" type="line"/>
      <point x="250" y="318" type="line"/>
      <point x="188" y="318" type="line"/>
      <point x="188" y="256" type="line"/>
      <point x="125" y="256" type="line"/>
      <point x="125" y="68" type="line"/>
      <point x="0" y="68" type="line"/>
      <point x="0" y="0" type="line"/>
    </contour>
    <contour>
      <point x="625" y="568" type="line"/>
      <point x="563" y="568" type="line"/>
      <point x="563" y="506" type="line"/>
      <point x="256" y="506" type="line"/>
      <point x="256" y="568" type="line"/>
      <point x="193" y="568" type="line"/>
      <point x="193" y="750" type="line"/>
      <point x="625" y="750" type="line"/>
    </contour>
    <contour>
      <point x="563" y="256" type="line"/>
      <point x="443" y="256" type="line"/>
      <point x="443" y="375" type="line"/>
      <point x="500" y="375" type="line"/>
      <point x="500" y="313" type="line"/>
      <point x="563" y="313" type="line"/>
    </contour>
    <contour>
      <point x="625" y="193" type="line"/>
      <point x="568" y="193" type="line"/>
      <point x="568" y="250" type="line"/>
      <point x="625" y="250" type="line"/>
    </contour>
    <contour>
      <point x="375" y="256" type="line"/>
      <point x="256" y="256" type="line"/>
      <point x="256" y="313" type="line"/>
      <point x="318" y="313" type="line"/>
      <point x="318" y="375" type="line"/>
      <point x="375" y="375" type="line"/>
    </contour>
    <contour>
      <point x="250" y="193" type="line"/>
      <point x="193" y="193" type="line"/>
      <point x="193" y="250" type="line"/>
      <point x="250" y="250" type="line"/>
    </contour>
  </outline>
</glyph>
<glyph name="S" format="1">
  <advance width="938"/>
  <unicode hex="0053"/>
  <outline>
    <contour>
      <point x="818" y="0" type="line"/>
      <point x="818" y="68" type="line"/>
      <point x="693" y="68" type="line"/>
      <point x="693" y="256" type="line"/>
      <point x="631" y="256" type="line"/>
      <point x="631" y="318" type="line"/>
      <point x="568" y="318" type="line"/>
      <point x="568" y="381" type="line"/>
      <point x="506" y="381" type="line"/>
      <point x="506" y="438" type="line"/>
      <point x="568" y="438" type="line"/>
      <point x="568" y="500" type="line"/>
      <point x="631" y="500" type="line"/>
      <point x="631" y="563" type="line"/>
      <point x="693" y="563" type="line"/>
      <point x="693" y="750" type="line"/>
      <point x="818" y="750" type="line"/>
      <point x="818" y="818" type="line"/>
      <point x="0" y="818" type="line"/>
      <point x="0" y="750" type="line"/>
      <point x="125" y="750" type="line"/>
      <point x="125" y="563" type="line"/>
      <point x="188" y="563" type="line"/>
      <point x="188" y="500" type="line"/>
      <point x="250" y="500" type="line"/>
      <point x="250" y="438" type="line"/>
      <point x="313" y="438" type="line"/>
      <point x="313" y="381" type="line"/>
      <point x="250" y="381" type="line"/>
      <point x="250" y="318" type="line"/>
      <point x="188" y="318" type="line"/>
      <point x="188" y="256" type="line"/>
      <point x="125" y="256" type="line"/>
      <point x="125" y="68" type="line"/>
      <point x="0" y="68" type="line"/>
      <point x="0" y="0" type="line"/>
    </contour>
    <contour>
      <point x="625" y="631" type="line"/>
      <point x="193" y="631" type="line"/>
      <point x="193" y="750" type="line"/>
      <point x="625" y="750" type="line"/>
    </contour>
    <contour>
      <point x="625" y="131" type="line"/>
      <point x="443" y="131" type="line"/>
      <point x="443" y="375" type="line"/>
      <point x="500" y="375" type="line"/>
      <point x="500" y="313" type="line"/>
      <point x="563" y="313" type="line"/>
      <point x="563" y="250" type="line"/>
      <point x="625" y="250" type="line"/>
    </contour>
    <contour>
      <point x="375" y="131" type="line"/>
      <point x="193" y="131" type="line"/>
      <point x="193" y="250" type="line"/>
      <point x="256" y="250" type="line"/>
      <point x="256" y="313" type="line"/>
      <point x="318" y="313" type="line"/>
      <point x="318" y="375" type="line"/>
      <point x="375" y="375" type="line"/>
    </contour>
  </outline>
</glyph>
<glyph name="T" format="1">
  <advance width="1063"/>
  <unicode hex="0054"/>
  <outline>
    <contour>
      <point x="818" y="625" type="line"/>
      <point x="818" y="693" type="line"/>
      <point x="750" y="693" type="line"/>
      <point x="750" y="631" type="line"/>
      <point x="688" y="631" type="line"/>
      <point x="688" y="563" type="line"/>
      <point x="756" y="563" type="line"/>
      <point x="756" y="625" type="line"/>
    </contour>
    <contour>
      <point x="506" y="625" type="line"/>
      <point x="506" y="818" type="line"/>
      <point x="438" y="818" type="line"/>
      <point x="438" y="625" type="line"/>
    </contour>
    <contour>
      <point x="943" y="313" type="line"/>
      <point x="943" y="381" type="line"/>
      <point x="750" y="381" type="line"/>
      <point x="750" y="313" type="line"/>
    </contour>
    <contour>
      <point x="256" y="563" type="line"/>
      <point x="256" y="631" type="line"/>
      <point x="193" y="631" type="line"/>
      <point x="193" y="693" type="line"/>
      <point x="125" y="693" type="line"/>
      <point x="125" y="625" type="line"/>
      <point x="188" y="625" type="line"/>
      <point x="188" y="563" type="line"/>
    </contour>
    <contour>
      <point x="693" y="250" type="line"/>
      <point x="693" y="443" type="line"/>
      <point x="631" y="443" type="line"/>
      <point x="631" y="506" type="line"/>
      <point x="568" y="506" type="line"/>
      <point x="568" y="568" type="line"/>
      <point x="375" y="568" type="line"/>
      <point x="375" y="506" type="line"/>
      <point x="313" y="506" type="line"/>
      <point x="313" y="443" type="line"/>
      <point x="250" y="443" type="line"/>
      <point x="250" y="250" type="line"/>
      <point x="313" y="250" type="line"/>
      <point x="313" y="188" type="line"/>
      <point x="375" y="188" type="line"/>
      <point x="375" y="-62" type="line"/>
      <point x="438" y="-62" type="line"/>
      <point x="438" y="-125" type="line"/>
      <point x="506" y="-125" type="line"/>
      <point x="506" y="-62" type="line"/>
      <point x="568" y="-62" type="line"/>
      <point x="568" y="188" type="line"/>
      <point x="631" y="188" type="line"/>
      <point x="631" y="250" type="line"/>
    </contour>
    <contour>
      <point x="625" y="256" type="line"/>
      <point x="563" y="256" type="line"/>
      <point x="563" y="193" type="line"/>
      <point x="500" y="193" type="line"/>
      <point x="500" y="68" type="line"/>
      <point x="443" y="68" type="line"/>
      <point x="443" y="193" type="line"/>
      <point x="381" y="193" type="line"/>
      <point x="381" y="256" type="line"/>
      <point x="318" y="256" type="line"/>
      <point x="318" y="438" type="line"/>
      <point x="381" y="438" type="line"/>
      <point x="381" y="500" type="line"/>
      <point x="563" y="500" type="line"/>
      <point x="563" y="438" type="line"/>
      <point x="625" y="438" type="line"/>
    </contour>
    <contour>
      <point x="193" y="313" type="line"/>
      <point x="193" y="381" type="line"/>
      <point x="0" y="381" type="line"/>
      <point x="0" y="313" type="line"/>
    </contour>
  </outline>
</glyph>
<glyph name="U" format="1">
  <advance width="688"/>
  <unicode hex="0055"/>
  <outline>
    <contour>
      <point x="568" y="250" type="line"/>
      <point x="568" y="443" type="line"/>
      <point x="506" y="443" type="line"/>
      <point x="506" y="506" type="line"/>
      <point x="375" y="506" type="line"/>
      <point x="375" y="443" type="line"/>
      <point x="313" y="443" type="line"/>
      <point x="313" y="381" type="line"/>
      <point x="256" y="381" type="line"/>
      <point x="256" y="443" type="line"/>
      <point x="193" y="443" type="line"/>
      <point x="193" y="506" type="line"/>
      <point x="63" y="506" type="line"/>
      <point x="63" y="443" type="line"/>
      <point x="0" y="443" type="line"/>
      <point x="0" y="250" type="line"/>
      <point x="63" y="250" type="line"/>
      <point x="63" y="188" type="line"/>
      <point x="125" y="188" type="line"/>
      <point x="125" y="125" type="line"/>
      <point x="188" y="125" type="line"/>
      <point x="188" y="63" type="line"/>
      <point x="250" y="63" type="line"/>
      <point x="250" y="0" type="line"/>
      <point x="318" y="0" type="line"/>
      <point x="318" y="63" type="line"/>
      <point x="381" y="63" type="line"/>
      <point x="381" y="125" type="line"/>
      <point x="443" y="125" type="line"/>
      <point x="443" y="188" type="line"/>
      <point x="506" y="188" type="line"/>
      <point x="506" y="250" type="line"/>
    </contour>
    <contour>
      <point x="500" y="256" type="line"/>
      <point x="438" y="256" type="line"/>
      <point x="438" y="193" type="line"/>
      <point x="375" y="193" type="line"/>
      <point x="375" y="131" type="line"/>
      <point x="313" y="131" type="line"/>
      <point x="313" y="68" type="line"/>
      <point x="256" y="68" type="line"/>
      <point x="256" y="131" type="line"/>
      <point x="193" y="131" type="line"/>
      <point x="193" y="193" type="line"/>
      <point x="131" y="193" type="line"/>
      <point x="131" y="256" type="line"/>
      <point x="68" y="256" type="line"/>
      <point x="68" y="438" type="line"/>
      <point x="188" y="438" type="line"/>
      <point x="188" y="375" type="line"/>
      <point x="250" y="375" type="line"/>
      <point x="250" y="313" type="line"/>
      <point x="318" y="313" type="line"/>
      <point x="318" y="375" type="line"/>
      <point x="381" y="375" type="line"/>
      <point x="381" y="438" type="line"/>
      <point x="500" y="438" type="line"/>
    </contour>
  </outline>
</glyph>
<glyph name="V" format="1">
  <advance width="688"/>
  <unicode hex="0056"/>
  <outline>
    <contour>
      <point x="568" y="250" type="line"/>
      <point x="568" y="443" type="line"/>
      <point x="506" y="443" type="line"/>
      <point x="506" y="506" type="line"/>
      <point x="375" y="506" type="line"/>
      <point x="375" y="443" type="line"/>
      <point x="313" y="443" type="line"/>
      <point x="313" y="381" type="line"/>
      <point x="256" y="381" type="line"/>
      <point x="256" y="443" type="line"/>
      <point x="193" y="443" type="line"/>
      <point x="193" y="506" type="line"/>
      <point x="63" y="506" type="line"/>
      <point x="63" y="443" type="line"/>
      <point x="0" y="443" type="line"/>
      <point x="0" y="250" type="line"/>
      <point x="63" y="250" type="line"/>
      <point x="63" y="188" type="line"/>
      <point x="125" y="188" type="line"/>
      <point x="125" y="125" type="line"/>
      <point x="188" y="125" type="line"/>
      <point x="188" y="63" type="line"/>
      <point x="250" y="63" type="line"/>
      <point x="250" y="0" type="line"/>
      <point x="318" y="0" type="line"/>
      <point x="318" y="63" type="line"/>
      <point x="381" y="63" type="line"/>
      <point x="381" y="125" type="line"/>
      <point x="443" y="125" type="line"/>
      <point x="443" y="188" type="line"/>
      <point x="506" y="188" type="line"/>
      <point x="506" y="250" type="line"/>
    </contour>
  </outline>
</glyph>
<glyph name="W" format="1">
  <advance width="1063"/>
  <unicode hex="0057"/>
  <outline>
    <contour>
      <point x="943" y="688" type="line"/>
      <point x="943" y="756" type="line"/>
      <point x="813" y="756" type="line"/>
      <point x="813" y="693" type="line"/>
      <point x="750" y="693" type="line"/>
      <point x="750" y="631" type="line"/>
      <point x="500" y="631" type="line"/>
      <point x="500" y="568" type="line"/>
      <point x="250" y="568" type="line"/>
      <point x="250" y="506" type="line"/>
      <point x="63" y="506" type="line"/>
      <point x="63" y="256" type="line"/>
      <point x="0" y="256" type="line"/>
      <point x="0" y="188" type="line"/>
      <point x="188" y="188" type="line"/>
      <point x="188" y="131" type="line"/>
      <point x="125" y="131" type="line"/>
      <point x="125" y="63" type="line"/>
      <point x="188" y="63" type="line"/>
      <point x="188" y="0" type="line"/>
      <point x="256" y="0" type="line"/>
      <point x="256" y="63" type="line"/>
      <point x="318" y="63" type="line"/>
      <point x="318" y="131" type="line"/>
      <point x="256" y="131" type="line"/>
      <point x="256" y="188" type="line"/>
      <point x="563" y="188" type="line"/>
      <point x="563" y="131" type="line"/>
      <point x="500" y="131" type="line"/>
      <point x="500" y="63" type="line"/>
      <point x="563" y="63" type="line"/>
      <point x="563" y="0" type="line"/>
      <point x="631" y="0" type="line"/>
      <point x="631" y="63" type="line"/>
      <point x="693" y="63" type="line"/>
      <point x="693" y="131" type="line"/>
      <point x="631" y="131" type="line"/>
      <point x="631" y="188" type="line"/>
      <point x="818" y="188" type="line"/>
      <point x="818" y="256" type="line"/>
      <point x="693" y="256" type="line"/>
      <point x="693" y="313" type="line"/>
      <point x="756" y="313" type="line"/>
      <point x="756" y="500" type="line"/>
      <point x="818" y="500" type="line"/>
      <point x="818" y="688" type="line"/>
    </contour>
    <contour>
      <point x="750" y="506" type="line"/>
      <point x="688" y="506" type="line"/>
      <point x="688" y="318" type="line"/>
      <point x="631" y="318" type="line"/>
      <point x="631" y="563" type="line"/>
      <point x="750" y="563" type="line"/>
    </contour>
    <contour>
      <point x="563" y="256" type="line"/>
      <point x="506" y="256" type="line"/>
      <point x="506" y="563" type="line"/>
      <point x="563" y="563" type="line"/>
    </contour>
    <contour>
      <point x="438" y="256" type="line"/>
      <point x="381" y="256" type="line"/>
      <point x="381" y="500" type="line"/>
      <point x="438" y="500" type="line"/>
    </contour>
    <contour>
      <point x="625" y="68" type="line"/>
      <point x="568" y="68" type="line"/>
      <point x="568" y="125" type="line"/>
      <point x="625" y="125" type="line"/>
    </contour>
    <contour>
      <point x="313" y="256" type="line"/>
      <point x="256" y="256" type="line"/>
      <point x="256" y="500" type="line"/>
      <point x="313" y="500" type="line"/>
    </contour>
    <contour>
      <point x="188" y="256" type="line"/>
      <point x="131" y="256" type="line"/>
      <point x="131" y="438" type="line"/>
      <point x="188" y="438" type="line"/>
    </contour>
    <contour>
      <point x="250" y="68" type="line"/>
      <point x="193" y="68" type="line"/>
      <point x="193" y="125" type="line"/>
      <point x="250" y="125" type="line"/>
    </contour>
  </outline>
</glyph>
<glyph name="X" format="1">
  <advance width="1063"/>
  <unicode hex="0058"/>
  <outline>
    <contour>
      <point x="818" y="625" type="line"/>
      <point x="818" y="693" type="line"/>
      <point x="750" y="693" type="line"/>
      <point x="750" y="625" type="line"/>
    </contour>
    <contour>
      <point x="943" y="313" type="line"/>
      <point x="943" y="381" type="line"/>
      <point x="875" y="381" type="line"/>
      <point x="875" y="313" type="line"/>
    </contour>
    <contour>
      <point x="506" y="688" type="line"/>
      <point x="506" y="756" type="line"/>
      <point x="438" y="756" type="line"/>
      <point x="438" y="688" type="line"/>
    </contour>
    <contour>
      <point x="818" y="313" type="line"/>
      <point x="818" y="381" type="line"/>
      <point x="750" y="381" type="line"/>
      <point x="750" y="313" type="line"/>
    </contour>
    <contour>
      <point x="193" y="625" type="line"/>
      <point x="193" y="693" type="line"/>
      <point x="125" y="693" type="line"/>
      <point x="125" y="625" type="line"/>
    </contour>
    <contour>
      <point x="693" y="125" type="line"/>
      <point x="693" y="193" type="line"/>
      <point x="631" y="193" type="line"/>
      <point x="631" y="250" type="line"/>
      <point x="693" y="250" type="line"/>
      <point x="693" y="443" type="line"/>
      <point x="631" y="443" type="line"/>
      <point x="631" y="500" type="line"/>
      <point x="693" y="500" type="line"/>
      <point x="693" y="568" type="line"/>
      <point x="625" y="568" type="line"/>
      <point x="625" y="506" type="line"/>
      <point x="568" y="506" type="line"/>
      <point x="568" y="568" type="line"/>
      <point x="506" y="568" type="line"/>
      <point x="506" y="631" type="line"/>
      <point x="438" y="631" type="line"/>
      <point x="438" y="568" type="line"/>
      <point x="375" y="568" type="line"/>
      <point x="375" y="506" type="line"/>
      <point x="318" y="506" type="line"/>
      <point x="318" y="568" type="line"/>
      <point x="250" y="568" type="line"/>
      <point x="250" y="500" type="line"/>
      <point x="313" y="500" type="line"/>
      <point x="313" y="443" type="line"/>
      <point x="250" y="443" type="line"/>
      <point x="250" y="250" type="line"/>
      <point x="313" y="250" type="line"/>
      <point x="313" y="193" type="line"/>
      <point x="250" y="193" type="line"/>
      <point x="250" y="125" type="line"/>
      <point x="318" y="125" type="line"/>
      <point x="318" y="188" type="line"/>
      <point x="375" y="188" type="line"/>
      <point x="375" y="125" type="line"/>
      <point x="438" y="125" type="line"/>
      <point x="438" y="63" type="line"/>
      <point x="506" y="63" type="line"/>
      <point x="506" y="125" type="line"/>
      <point x="568" y="125" type="line"/>
      <point x="568" y="188" type="line"/>
      <point x="625" y="188" type="line"/>
      <point x="625" y="125" type="line"/>
    </contour>
    <contour>
      <point x="625" y="256" type="line"/>
      <point x="563" y="256" type="line"/>
      <point x="563" y="193" type="line"/>
      <point x="381" y="193" type="line"/>
      <point x="381" y="256" type="line"/>
      <point x="318" y="256" type="line"/>
      <point x="318" y="438" type="line"/>
      <point x="381" y="438" type="line"/>
      <point x="381" y="500" type="line"/>
      <point x="563" y="500" type="line"/>
      <point x="563" y="438" type="line"/>
      <point x="625" y="438" type="line"/>
    </contour>
    <contour>
      <point x="818" y="0" type="line"/>
      <point x="818" y="68" type="line"/>
      <point x="750" y="68" type="line"/>
      <point x="750" y="0" type="line"/>
    </contour>
    <contour>
      <point x="193" y="313" type="line"/>
      <point x="193" y="381" type="line"/>
      <point x="125" y="381" type="line"/>
      <point x="125" y="313" type="line"/>
    </contour>
    <contour>
      <point x="506" y="-62" type="line"/>
      <point x="506" y="6" type="line"/>
      <point x="438" y="6" type="line"/>
      <point x="438" y="-62" type="line"/>
    </contour>
    <contour>
      <point x="68" y="313" type="line"/>
      <point x="68" y="381" type="line"/>
      <point x="0" y="381" type="line"/>
      <point x="0" y="313" type="line"/>
    </contour>
    <contour>
      <point x="193" y="0" type="line"/>
      <point x="193" y="68" type="line"/>
      <point x="125" y="68" type="line"/>
      <point x="125" y="0" type="line"/>
    </contour>
  </outline>
</glyph>
<glyph name="Y" format="1">
  <advance width="813"/>
  <unicode hex="0059"/>
  <outline>
    <contour>
      <point x="693" y="500" type="line"/>
      <point x="693" y="631" type="line"/>
      <point x="631" y="631" type="line"/>
      <point x="631" y="693" type="line"/>
      <point x="506" y="693" type="line"/>
      <point x="506" y="818" type="line"/>
      <point x="188" y="818" type="line"/>
      <point x="188" y="693" type="line"/>
      <point x="63" y="693" type="line"/>
      <point x="63" y="631" type="line"/>
      <point x="0" y="631" type="line"/>
      <point x="0" y="500" type="line"/>
      <point x="63" y="500" type="line"/>
      <point x="63" y="63" type="line"/>
      <point x="125" y="63" type="line"/>
      <point x="125" y="0" type="line"/>
      <point x="568" y="0" type="line"/>
      <point x="568" y="63" type="line"/>
      <point x="631" y="63" type="line"/>
      <point x="631" y="500" type="line"/>
    </contour>
    <contour>
      <point x="438" y="693" type="line"/>
      <point x="256" y="693" type="line"/>
      <point x="256" y="750" type="line"/>
      <point x="438" y="750" type="line"/>
    </contour>
    <contour>
      <point x="625" y="568" type="line"/>
      <point x="68" y="568" type="line"/>
      <point x="68" y="625" type="line"/>
      <point x="625" y="625" type="line"/>
    </contour>
    <contour>
      <point x="563" y="68" type="line"/>
      <point x="131" y="68" type="line"/>
      <point x="131" y="500" type="line"/>
      <point x="563" y="500" type="line"/>
    </contour>
    <contour>
      <point x="506" y="125" type="line"/>
      <point x="506" y="443" type="line"/>
      <point x="438" y="443" type="line"/>
      <point x="438" y="125" type="line"/>
    </contour>
    <contour>
      <point x="381" y="125" type="line"/>
      <point x="381" y="443" type="line"/>
      <point x="313" y="443" type="line"/>
      <point x="313" y="125" type="line"/>
    </contour>
    <contour>
      <point x="256" y="125" type="line"/>
      <point x="256" y="443" type="line"/>
      <point x="188" y="443" type="line"/>
      <point x="188" y="125" type="line"/>
    </contour>
  </outline>
</glyph>
<glyph name="Z" format="1">
  <advance width="813"/>
  <unicode hex="005A"/>
  <outline>
    <contour>
      <point x="693" y="188" type="line"/>
      <point x="693" y="568" type="line"/>
      <point x="631" y="568" type="line"/>
      <point x="631" y="631" type="line"/>
      <point x="568" y="631" type="line"/>
      <point x="568" y="693" type="line"/>
      <point x="443" y="693" type="line"/>
      <point x="443" y="756" type="line"/>
      <point x="250" y="756" type="line"/>
      <point x="250" y="693" type="line"/>
      <point x="125" y="693" type="line"/>
      <point x="125" y="631" type="line"/>
      <point x="63" y="631" type="line"/>
      <point x="63" y="568" type="line"/>
      <point x="0" y="568" type="line"/>
      <point x="0" y="188" type="line"/>
      <point x="63" y="188" type="line"/>
      <point x="63" y="125" type="line"/>
      <point x="125" y="125" type="line"/>
      <point x="125" y="63" type="line"/>
      <point x="250" y="63" type="line"/>
      <point x="250" y="0" type="line"/>
      <point x="443" y="0" type="line"/>
      <point x="443" y="63" type="line"/>
      <point x="568" y="63" type="line"/>
      <point x="568" y="125" type="line"/>
      <point x="631" y="125" type="line"/>
      <point x="631" y="188" type="line"/>
    </contour>
    <contour>
      <point x="563" y="506" type="line"/>
      <point x="438" y="506" type="line"/>
      <point x="438" y="443" type="line"/>
      <point x="256" y="443" type="line"/>
      <point x="256" y="506" type="line"/>
      <point x="131" y="506" type="line"/>
      <point x="131" y="625" type="line"/>
      <point x="256" y="625" type="line"/>
      <point x="256" y="688" type="line"/>
      <point x="438" y="688" type="line"/>
      <point x="438" y="625" type="line"/>
      <point x="563" y="625" type="line"/>
    </contour>
    <contour>
      <point x="625" y="193" type="line"/>
      <point x="563" y="193" type="line"/>
      <point x="563" y="131" type="line"/>
      <point x="438" y="131" type="line"/>
      <point x="438" y="68" type="line"/>
      <point x="381" y="68" type="line"/>
      <point x="381" y="375" type="line"/>
      <point x="443" y="375" type="line"/>
      <point x="443" y="438" type="line"/>
      <point x="568" y="438" type="line"/>
      <point x="568" y="500" type="line"/>
      <point x="625" y="500" type="line"/>
    </contour>
    <contour>
      <point x="313" y="68" type="line"/>
      <point x="256" y="68" type="line"/>
      <point x="256" y="131" type="line"/>
      <point x="131" y="131" type="line"/>
      <point x="131" y="193" type="line"/>
      <point x="68" y="193" type="line"/>
      <point x="68" y="500" type="line"/>
      <point x="125" y="500" type="line"/>
      <point x="125" y="438" type="line"/>
      <point x="250" y="438" type="line"/>
      <point x="250" y="375" type="line"/>
      <point x="313" y="375" type="line"/>
    </contour>
  </outline>
</glyph>
<glyph name="bracketleft" format="1">
  <advance width="1063"/>
  <unicode hex="005B"/>
  <outline>
    <contour>
      <point x="943" y="-187" type="line"/>
      <point x="943" y="381" type="line"/>
      <point x="881" y="381" type="line"/>
      <point x="881" y="443" type="line"/>
      <point x="818" y="443" type="line"/>
      <point x="818" y="631" type="line"/>
      <point x="756" y="631" type="line"/>
      <point x="756" y="693" type="line"/>
      <point x="381" y="693" type="line"/>
      <point x="381" y="756" type="line"/>
      <point x="318" y="756" type="line"/>
      <point x="318" y="818" type="line"/>
      <point x="63" y="818" type="line"/>
      <point x="63" y="756" type="line"/>
      <point x="0" y="756" type="line"/>
      <point x="0" y="0" type="line"/>
      <point x="125" y="0" type="line"/>
      <point x="125" y="-187" type="line"/>
    </contour>
    <contour>
      <point x="750" y="443" type="line"/>
      <point x="506" y="443" type="line"/>
      <point x="506" y="506" type="line"/>
      <point x="443" y="506" type="line"/>
      <point x="443" y="568" type="line"/>
      <point x="188" y="568" type="line"/>
      <point x="188" y="506" type="line"/>
      <point x="125" y="506" type="line"/>
      <point x="125" y="68" type="line"/>
      <point x="68" y="68" type="line"/>
      <point x="68" y="750" type="line"/>
      <point x="313" y="750" type="line"/>
      <point x="313" y="625" type="line"/>
      <point x="750" y="625" type="line"/>
    </contour>
    <contour>
      <point x="875" y="-119" type="line"/>
      <point x="193" y="-119" type="line"/>
      <point x="193" y="500" type="line"/>
      <point x="438" y="500" type="line"/>
      <point x="438" y="375" type="line"/>
      <point x="875" y="375" type="line"/>
    </contour>
  </outline>
</glyph>
<glyph name="backslash" format="1">
  <advance width="1126"/>
  <unicode hex="005C"/>
  <outline>
    <contour>
      <point x="1006" y="375" type="line"/>
      <point x="1006" y="506" type="line"/>
      <point x="881" y="506" type="line"/>
      <point x="881" y="631" type="line"/>
      <point x="818" y="631" type="line"/>
      <point x="818" y="693" type="line"/>
      <point x="381" y="693" type="line"/>
      <point x="381" y="756" type="line"/>
      <point x="318" y="756" type="line"/>
      <point x="318" y="818" type="line"/>
      <point x="63" y="818" type="line"/>
      <point x="63" y="756" type="line"/>
      <point x="0" y="756" type="line"/>
      <point x="0" y="0" type="line"/>
      <point x="756" y="0" type="line"/>
      <point x="756" y="63" type="line"/>
      <point x="818" y="63" type="line"/>
      <point x="818" y="188" type="line"/>
      <point x="881" y="188" type="line"/>
      <point x="881" y="250" type="line"/>
      <point x="943" y="250" type="line"/>
      <point x="943" y="375" type="line"/>
    </contour>
    <contour>
      <point x="813" y="506" type="line"/>
      <point x="250" y="506" type="line"/>
      <point x="250" y="381" type="line"/>
      <point x="188" y="381" type="line"/>
      <point x="188" y="256" type="line"/>
      <point x="125" y="256" type="line"/>
      <point x="125" y="131" type="line"/>
      <point x="68" y="131" type="line"/>
      <point x="68" y="750" type="line"/>
      <point x="313" y="750" type="line"/>
      <point x="313" y="625" type="line"/>
      <point x="813" y="625" type="line"/>
    </contour>
    <contour>
      <point x="938" y="381" type="line"/>
      <point x="875" y="381" type="line"/>
      <point x="875" y="256" type="line"/>
      <point x="813" y="256" type="line"/>
      <point x="813" y="193" type="line"/>
      <point x="750" y="193" type="line"/>
      <point x="750" y="68" type="line"/>
      <point x="131" y="68" type="line"/>
      <point x="131" y="125" type="line"/>
      <point x="193" y="125" type="line"/>
      <point x="193" y="250" type="line"/>
      <point x="256" y="250" type="line"/>
      <point x="256" y="375" type="line"/>
      <point x="318" y="375" type="line"/>
      <point x="318" y="438" type="line"/>
      <point x="938" y="438" type="line"/>
    </contour>
  </outline>
</glyph>
<glyph name="asciicircum" format="1">
  <advance width="938"/>
  <unicode hex="005E"/>
  <outline>
    <contour>
      <point x="818" y="0" type="line"/>
      <point x="818" y="131" type="line"/>
      <point x="756" y="131" type="line"/>
      <point x="756" y="193" type="line"/>
      <point x="693" y="193" type="line"/>
      <point x="693" y="256" type="line"/>
      <point x="631" y="256" type="line"/>
      <point x="631" y="318" type="line"/>
      <point x="568" y="318" type="line"/>
      <point x="568" y="381" type="line"/>
      <point x="506" y="381" type="line"/>
      <point x="506" y="438" type="line"/>
      <point x="568" y="438" type="line"/>
      <point x="568" y="631" type="line"/>
      <point x="506" y="631" type="line"/>
      <point x="506" y="693" type="line"/>
      <point x="443" y="693" type="line"/>
      <point x="443" y="756" type="line"/>
      <point x="381" y="756" type="line"/>
      <point x="381" y="818" type="line"/>
      <point x="188" y="818" type="line"/>
      <point x="188" y="756" type="line"/>
      <point x="125" y="756" type="line"/>
      <point x="125" y="693" type="line"/>
      <point x="63" y="693" type="line"/>
      <point x="63" y="631" type="line"/>
      <point x="0" y="631" type="line"/>
      <point x="0" y="438" type="line"/>
      <point x="63" y="438" type="line"/>
      <point x="63" y="375" type="line"/>
      <point x="125" y="375" type="line"/>
      <point x="125" y="313" type="line"/>
      <point x="188" y="313" type="line"/>
      <point x="188" y="250" type="line"/>
      <point x="381" y="250" type="line"/>
      <point x="381" y="313" type="line"/>
      <point x="438" y="313" type="line"/>
      <point x="438" y="250" type="line"/>
      <point x="500" y="250" type="line"/>
      <point x="500" y="188" type="line"/>
      <point x="563" y="188" type="line"/>
      <point x="563" y="125" type="line"/>
      <point x="625" y="125" type="line"/>
      <point x="625" y="63" type="line"/>
      <point x="688" y="63" type="line"/>
      <point x="688" y="0" type="line"/>
    </contour>
    <contour>
      <point x="500" y="443" type="line"/>
      <point x="438" y="443" type="line"/>
      <point x="438" y="381" type="line"/>
      <point x="375" y="381" type="line"/>
      <point x="375" y="318" type="line"/>
      <point x="193" y="318" type="line"/>
      <point x="193" y="381" type="line"/>
      <point x="131" y="381" type="line"/>
      <point x="131" y="443" type="line"/>
      <point x="68" y="443" type="line"/>
      <point x="68" y="625" type="line"/>
      <point x="131" y="625" type="line"/>
      <point x="131" y="688" type="line"/>
      <point x="193" y="688" type="line"/>
      <point x="193" y="750" type="line"/>
      <point x="375" y="750" type="line"/>
      <point x="375" y="688" type="line"/>
      <point x="438" y="688" type="line"/>
      <point x="438" y="625" type="line"/>
      <point x="500" y="625" type="line"/>
    </contour>
    <contour>
      <point x="443" y="500" type="line"/>
      <point x="443" y="568" type="line"/>
      <point x="125" y="568" type="line"/>
      <point x="125" y="500" type="line"/>
    </contour>
  </outline>
</glyph>
<glyph name="underscore" format="1">
  <advance width="876"/>
  <unicode hex="005F"/>
  <outline>
    <contour>
      <point x="756" y="563" type="line"/>
      <point x="756" y="693" type="line"/>
      <point x="625" y="693" type="line"/>
      <point x="625" y="568" type="line"/>
      <point x="563" y="568" type="line"/>
      <point x="563" y="443" type="line"/>
      <point x="500" y="443" type="line"/>
      <point x="500" y="318" type="line"/>
      <point x="438" y="318" type="line"/>
      <point x="438" y="193" type="line"/>
      <point x="375" y="193" type="line"/>
      <point x="375" y="131" type="line"/>
      <point x="318" y="131" type="line"/>
      <point x="318" y="193" type="line"/>
      <point x="256" y="193" type="line"/>
      <point x="256" y="256" type="line"/>
      <point x="193" y="256" type="line"/>
      <point x="193" y="318" type="line"/>
      <point x="131" y="318" type="line"/>
      <point x="131" y="381" type="line"/>
      <point x="68" y="381" type="line"/>
      <point x="68" y="443" type="line"/>
      <point x="0" y="443" type="line"/>
      <point x="0" y="313" type="line"/>
      <point x="63" y="313" type="line"/>
      <point x="63" y="250" type="line"/>
      <point x="125" y="250" type="line"/>
      <point x="125" y="188" type="line"/>
      <point x="188" y="188" type="line"/>
      <point x="188" y="125" type="line"/>
      <point x="250" y="125" type="line"/>
      <point x="250" y="63" type="line"/>
      <point x="313" y="63" type="line"/>
      <point x="313" y="0" type="line"/>
      <point x="443" y="0" type="line"/>
      <point x="443" y="63" type="line"/>
      <point x="506" y="63" type="line"/>
      <point x="506" y="188" type="line"/>
      <point x="568" y="188" type="line"/>
      <point x="568" y="313" type="line"/>
      <point x="631" y="313" type="line"/>
      <point x="631" y="438" type="line"/>
      <point x="693" y="438" type="line"/>
      <point x="693" y="563" type="line"/>
    </contour>
  </outline>
</glyph>
<glyph name="f" format="1">
  <advance width="256"/>
  <unicode hex="0066"/>
  <outline>
    <contour>
      <point x="256" y="500" type="line"/>
      <point x="256" y="568" type="line"/>
      <point x="0" y="568" type="line"/>
      <point x="0" y="500" type="line"/>
    </contour>
    <contour>
      <point x="193" y="250" type="line"/>
      <point x="193" y="318" type="line"/>
      <point x="68" y="318" type="line"/>
      <point x="68" y="375" type="line"/>
      <point x="193" y="375" type="line"/>
      <point x="193" y="443" type="line"/>
      <point x="0" y="443" type="line"/>
      <point x="0" y="125" type="line"/>
      <point x="68" y="125" type="line"/>
      <point x="68" y="250" type="line"/>
    </contour>
    <contour>
      <point x="256" y="0" type="line"/>
      <point x="256" y="68" type="line"/>
      <point x="0" y="68" type="line"/>
      <point x="0" y="0" type="line"/>
    </contour>
  </outline>
</glyph>
<glyph name="h" format="1">
  <advance width="318"/>
  <unicode hex="0068"/>
  <outline>
    <contour>
      <point x="318" y="500" type="line"/>
      <point x="318" y="568" type="line"/>
      <point x="0" y="568" type="line"/>
      <point x="0" y="500" type="line"/>
    </contour>
    <contour>
      <point x="256" y="125" type="line"/>
      <point x="256" y="443" type="line"/>
      <point x="188" y="443" type="line"/>
      <point x="188" y="318" type="line"/>
      <point x="68" y="318" type="line"/>
      <point x="68" y="443" type="line"/>
      <point x="0" y="443" type="line"/>
      <point x="0" y="125" type="line"/>
      <point x="68" y="125" type="line"/>
      <point x="68" y="250" type="line"/>
      <point x="188" y="250" type="line"/>
      <point x="188" y="125" type="line"/>
    </contour>
    <contour>
      <point x="318" y="0" type="line"/>
      <point x="318" y="68" type="line"/>
      <point x="0" y="68" type="line"/>
      <point x="0" y="0" type="line"/>
    </contour>
  </outline>
</glyph>
<glyph name="i" format="1">
  <advance width="131"/>
  <unicode hex="0069"/>
  <outline>
    <contour>
      <point x="131" y="500" type="line"/>
      <point x="131" y="568" type="line"/>
      <point x="0" y="568" type="line"/>
      <point x="0" y="500" type="line"/>
    </contour>
    <contour>
      <point x="68" y="125" type="line"/>
      <point x="68" y="443" type="line"/>
      <point x="0" y="443" type="line"/>
      <point x="0" y="125" type="line"/>
    </contour>
    <contour>
      <point x="131" y="0" type="line"/>
      <point x="131" y="68" type="line"/>
      <point x="0" y="68" type="line"/>
      <point x="0" y="0" type="line"/>
    </contour>
  </outline>
</glyph>
<glyph name="l" format="1">
  <advance width="256"/>
  <unicode hex="006C"/>
  <outline>
    <contour>
      <point x="256" y="500" type="line"/>
      <point x="256" y="568" type="line"/>
      <point x="0" y="568" type="line"/>
      <point x="0" y="500" type="line"/>
    </contour>
    <contour>
      <point x="193" y="125" type="line"/>
      <point x="193" y="193" type="line"/>
      <point x="68" y="193" type="line"/>
      <point x="68" y="443" type="line"/>
      <point x="0" y="443" type="line"/>
      <point x="0" y="125" type="line"/>
    </contour>
    <contour>
      <point x="256" y="0" type="line"/>
      <point x="256" y="68" type="line"/>
      <point x="0" y="68" type="line"/>
      <point x="0" y="0" type="line"/>
    </contour>
  </outline>
</glyph>
<glyph name="m" format="1">
  <advance width="381"/>
  <unicode hex="006D"/>
  <outline>
    <contour>
      <point x="381" y="500" type="line"/>
      <point x="381" y="568" type="line"/>
      <point x="0" y="568" type="line"/>
      <point x="0" y="500" type="line"/>
    </contour>
    <contour>
      <point x="318" y="125" type="line"/>
      <point x="318" y="443" type="line"/>
      <point x="250" y="443" type="line"/>
      <point x="250" y="381" type="line"/>
      <point x="188" y="381" type="line"/>
      <point x="188" y="318" type="line"/>
      <point x="131" y="318" type="line"/>
      <point x="131" y="381" type="line"/>
      <point x="68" y="381" type="line"/>
      <point x="68" y="443" type="line"/>
      <point x="0" y="443" type="line"/>
      <point x="0" y="125" type="line"/>
      <point x="68" y="125" type="line"/>
      <point x="68" y="313" type="line"/>
      <point x="125" y="313" type="line"/>
      <point x="125" y="250" type="line"/>
      <point x="193" y="250" type="line"/>
      <point x="193" y="313" type="line"/>
      <point x="250" y="313" type="line"/>
      <point x="250" y="125" type="line"/>
    </contour>
    <contour>
      <point x="381" y="0" type="line"/>
      <point x="381" y="68" type="line"/>
      <point x="0" y="68" type="line"/>
      <point x="0" y="0" type="line"/>
    </contour>
  </outline>
</glyph>
<glyph name="n" format="1">
  <advance width="318"/>
  <unicode hex="006E"/>
  <outline>
    <contour>
      <point x="318" y="500" type="line"/>
      <point x="318" y="568" type="line"/>
      <point x="0" y="568" type="line"/>
      <point x="0" y="500" type="line"/>
    </contour>
    <contour>
      <point x="256" y="125" type="line"/>
      <point x="256" y="443" type="line"/>
      <point x="188" y="443" type="line"/>
      <point x="188" y="318" type="line"/>
      <point x="131" y="318" type="line"/>
      <point x="131" y="381" type="line"/>
      <point x="68" y="381" type="line"/>
      <point x="68" y="443" type="line"/>
      <point x="0" y="443" type="line"/>
      <point x="0" y="125" type="line"/>
      <point x="68" y="125" type="line"/>
      <point x="68" y="313" type="line"/>
      <point x="125" y="313" type="line"/>
      <point x="125" y="250" type="line"/>
      <point x="188" y="250" type="line"/>
      <point x="188" y="125" type="line"/>
    </contour>
    <contour>
      <point x="318" y="0" type="line"/>
      <point x="318" y="68" type="line"/>
      <point x="0" y="68" type="line"/>
      <point x="0" y="0" type="line"/>
    </contour>
  </outline>
</glyph>
<glyph name="o" format="1">
  <advance width="318"/>
  <unicode hex="006F"/>
  <outline>
    <contour>
      <point x="318" y="500" type="line"/>
      <point x="318" y="568" type="line"/>
      <point x="0" y="568" type="line"/>
      <point x="0" y="500" type="line"/>
    </contour>
    <contour>
      <point x="256" y="188" type="line"/>
      <point x="256" y="381" type="line"/>
      <point x="193" y="381" type="line"/>
      <point x="193" y="443" type="line"/>
      <point x="63" y="443" type="line"/>
      <point x="63" y="381" type="line"/>
      <point x="0" y="381" type="line"/>
      <point x="0" y="188" type="line"/>
      <point x="63" y="188" type="line"/>
      <point x="63" y="125" type="line"/>
      <point x="193" y="125" type="line"/>
      <point x="193" y="188" type="line"/>
    </contour>
    <contour>
      <point x="188" y="193" type="line"/>
      <point x="68" y="193" type="line"/>
      <point x="68" y="375" type="line"/>
      <point x="188" y="375" type="line"/>
    </contour>
    <contour>
      <point x="318" y="0" type="line"/>
      <point x="318" y="68" type="line"/>
      <point x="0" y="68" type="line"/>
      <point x="0" y="0" type="line"/>
    </contour>
  </outline>
</glyph>
<glyph name="q" format="1">
  <advance width="318"/>
  <unicode hex="0071"/>
  <outline>
    <contour>
      <point x="318" y="500" type="line"/>
      <point x="318" y="568" type="line"/>
      <point x="0" y="568" type="line"/>
      <point x="0" y="500" type="line"/>
    </contour>
    <contour>
      <point x="68" y="193" type="line"/>
      <point x="68" y="375" type="line"/>
      <point x="188" y="375" type="line"/>
      <point x="188" y="193" type="line"/>
    </contour>
    <contour>
      <point x="318" y="0" type="line"/>
      <point x="318" y="68" type="line"/>
      <point x="256" y="68" type="line"/>
      <point x="256" y="131" type="line"/>
      <point x="193" y="131" type="line"/>
      <point x="193" y="188" type="line"/>
      <point x="256" y="188" type="line"/>
      <point x="256" y="381" type="line"/>
      <point x="193" y="381" type="line"/>
      <point x="193" y="443" type="line"/>
      <point x="63" y="443" type="line"/>
      <point x="63" y="381" type="line"/>
      <point x="0" y="381" type="line"/>
      <point x="0" y="188" type="line"/>
      <point x="63" y="188" type="line"/>
      <point x="63" y="125" type="line"/>
      <point x="188" y="125" type="line"/>
      <point x="188" y="68" type="line"/>
      <point x="0" y="68" type="line"/>
      <point x="0" y="0" type="line"/>
    </contour>
  </outline>
</glyph>
<glyph name="r" format="1">
  <advance width="318"/>
  <unicode hex="0072"/>
  <outline>
    <contour>
      <point x="318" y="500" type="line"/>
      <point x="318" y="568" type="line"/>
      <point x="0" y="568" type="line"/>
      <point x="0" y="500" type="line"/>
    </contour>
    <contour>
      <point x="256" y="125" type="line"/>
      <point x="256" y="193" type="line"/>
      <point x="193" y="193" type="line"/>
      <point x="193" y="250" type="line"/>
      <point x="256" y="250" type="line"/>
      <point x="256" y="381" type="line"/>
      <point x="193" y="381" type="line"/>
      <point x="193" y="443" type="line"/>
      <point x="0" y="443" type="line"/>
      <point x="0" y="125" type="line"/>
      <point x="68" y="125" type="line"/>
      <point x="68" y="188" type="line"/>
      <point x="188" y="188" type="line"/>
      <point x="188" y="125" type="line"/>
    </contour>
    <contour>
      <point x="188" y="256" type="line"/>
      <point x="68" y="256" type="line"/>
      <point x="68" y="375" type="line"/>
      <point x="188" y="375" type="line"/>
    </contour>
    <contour>
      <point x="318" y="0" type="line"/>
      <point x="318" y="68" type="line"/>
      <point x="0" y="68" type="line"/>
      <point x="0" y="0" type="line"/>
    </contour>
  </outline>
</glyph>
<glyph name="t" format="1">
  <advance width="381"/>
  <unicode hex="0074"/>
  <outline>
    <contour>
      <point x="381" y="500" type="line"/>
      <point x="381" y="568" type="line"/>
      <point x="0" y="568" type="line"/>
      <point x="0" y="500" type="line"/>
    </contour>
    <contour>
      <point x="318" y="375" type="line"/>
      <point x="318" y="443" type="line"/>
      <point x="0" y="443" type="line"/>
      <point x="0" y="375" type="line"/>
      <point x="125" y="375" type="line"/>
      <point x="125" y="125" type="line"/>
      <point x="193" y="125" type="line"/>
      <point x="193" y="375" type="line"/>
    </contour>
    <contour>
      <point x="381" y="0" type="line"/>
      <point x="381" y="68" type="line"/>
      <point x="0" y="68" type="line"/>
      <point x="0" y="0" type="line"/>
    </contour>
  </outline>
</glyph>
<glyph name="w" format="1">
  <advance width="381"/>
  <unicode hex="0077"/>
  <outline>
    <contour>
      <point x="381" y="500" type="line"/>
      <point x="381" y="568" type="line"/>
      <point x="0" y="568" type="line"/>
      <point x="0" y="500" type="line"/>
    </contour>
    <contour>
      <point x="318" y="188" type="line"/>
      <point x="318" y="443" type="line"/>
      <point x="250" y="443" type="line"/>
      <point x="250" y="193" type="line"/>
      <point x="193" y="193" type="line"/>
      <point x="193" y="318" type="line"/>
      <point x="125" y="318" type="line"/>
      <point x="125" y="193" type="line"/>
      <point x="68" y="193" type="line"/>
      <point x="68" y="443" type="line"/>
      <point x="0" y="443" type="line"/>
      <point x="0" y="188" type="line"/>
      <point x="63" y="188" type="line"/>
      <point x="63" y="125" type="line"/>
      <point x="131" y="125" type="line"/>
      <point x="131" y="188" type="line"/>
      <point x="188" y="188" type="line"/>
      <point x="188" y="125" type="line"/>
      <point x="256" y="125" type="line"/>
      <point x="256" y="188" type="line"/>
    </contour>
    <contour>
      <point x="381" y="0" type="line"/>
      <point x="381" y="68" type="line"/>
      <point x="0" y="68" type="line"/>
      <point x="0" y="0" type="line"/>
    </contour>
  </outline>
</glyph>
<glyph name="y" format="1">
  <advance width="381"/>
  <unicode hex="0079"/>
  <outline>
    <contour>
      <point x="381" y="500" type="line"/>
      <point x="381" y="568" type="line"/>
      <point x="0" y="568" type="line"/>
      <point x="0" y="500" type="line"/>
    </contour>
    <contour>
      <point x="318" y="313" type="line"/>
      <point x="318" y="443" type="line"/>
      <point x="250" y="443" type="line"/>
      <point x="250" y="318" type="line"/>
      <point x="188" y="318" type="line"/>
      <point x="188" y="256" type="line"/>
      <point x="131" y="256" type="line"/>
      <point x="131" y="318" type="line"/>
      <point x="68" y="318" type="line"/>
      <point x="68" y="443" type="line"/>
      <point x="0" y="443" type="line"/>
      <point x="0" y="313" type="line"/>
      <point x="63" y="313" type="line"/>
      <point x="63" y="250" type="line"/>
      <point x="125" y="250" type="line"/>
      <point x="125" y="125" type="line"/>
      <point x="193" y="125" type="line"/>
      <point x="193" y="250" type="line"/>
      <point x="256" y="250" type="line"/>
      <point x="256" y="313" type="line"/>
    </contour>
    <contour>
      <point x="381" y="0" type="line"/>
      <point x="381" y="68" type="line"/>
      <point x="0" y="68" type="line"/>
      <point x="0" y="0" type="line"/>
    </contour>
  </outline>
</glyph>
<glyph name="z" format="1">
  <advance width="256"/>
  <unicode hex="007A"/>
  <outline>
    <contour>
      <point x="256" y="500" type="line"/>
      <point x="256" y="568" type="line"/>
      <point x="0" y="568" type="line"/>
      <point x="0" y="500" type="line"/>
    </contour>
    <contour>
      <point x="193" y="125" type="line"/>
      <point x="193" y="193" type="line"/>
      <point x="68" y="193" type="line"/>
      <point x="68" y="250" type="line"/>
      <point x="131" y="250" type="line"/>
      <point x="131" y="313" type="line"/>
      <point x="193" y="313" type="line"/>
      <point x="193" y="443" type="line"/>
      <point x="0" y="443" type="line"/>
      <point x="0" y="375" type="line"/>
      <point x="125" y="375" type="line"/>
      <point x="125" y="318" type="line"/>
      <point x="63" y="318" type="line"/>
      <point x="63" y="256" type="line"/>
      <point x="0" y="256" type="line"/>
      <point x="0" y="125" type="line"/>
    </contour>
    <contour>
      <point x="256" y="0" type="line"/>
      <point x="256" y="68" type="line"/>
      <point x="0" y="68" type="line"/>
      <point x="0" y="0" type="line"/>
    </contour>
  </outline>
</glyph>
<glyph name="braceleft" format="1">
  <advance width="381"/>
  <unicode hex="007B"/>
  <outline>
    <contour>
      <point x="381" y="0" type="line"/>
      <point x="381" y="68" type="line"/>
      <point x="256" y="68" type="line"/>
      <point x="256" y="131" type="line"/>
      <point x="131" y="131" type="line"/>
      <point x="131" y="193" type="line"/>
      <point x="68" y="193" type="line"/>
      <point x="68" y="375" type="line"/>
      <point x="131" y="375" type="line"/>
      <point x="131" y="438" type="line"/>
      <point x="256" y="438" type="line"/>
      <point x="256" y="500" type="line"/>
      <point x="381" y="500" type="line"/>
      <point x="381" y="568" type="line"/>
      <point x="250" y="568" type="line"/>
      <point x="250" y="506" type="line"/>
      <point x="125" y="506" type="line"/>
      <point x="125" y="443" type="line"/>
      <point x="63" y="443" type="line"/>
      <point x="63" y="381" type="line"/>
      <point x="0" y="381" type="line"/>
      <point x="0" y="188" type="line"/>
      <point x="63" y="188" type="line"/>
      <point x="63" y="125" type="line"/>
      <point x="125" y="125" type="line"/>
      <point x="125" y="63" type="line"/>
      <point x="250" y="63" type="line"/>
      <point x="250" y="0" type="line"/>
    </contour>
    <contour>
      <point x="193" y="250" type="line"/>
      <point x="193" y="318" type="line"/>
      <point x="125" y="318" type="line"/>
      <point x="125" y="250" type="line"/>
    </contour>
  </outline>
</glyph>
<glyph name="bar" format="1">
  <advance width="193"/>
  <unicode hex="007C"/>
  <outline>
    <contour>
      <point x="193" y="500" type="line"/>
      <point x="193" y="568" type="line"/>
      <point x="0" y="568" type="line"/>
      <point x="0" y="500" type="line"/>
    </contour>
    <contour>
      <point x="193" y="0" type="line"/>
      <point x="193" y="68" type="line"/>
      <point x="0" y="68" type="line"/>
      <point x="0" y="0" type="line"/>
    </contour>
  </outline>
</glyph>
<glyph name="braceright" format="1">
  <advance width="318"/>
  <unicode hex="007D"/>
  <outline>
    <contour>
      <point x="193" y="250" type="line"/>
      <point x="193" y="318" type="line"/>
      <point x="125" y="318" type="line"/>
      <point x="125" y="250" type="line"/>
    </contour>
    <contour>
      <point x="318" y="188" type="line"/>
      <point x="318" y="381" type="line"/>
      <point x="256" y="381" type="line"/>
      <point x="256" y="443" type="line"/>
      <point x="193" y="443" type="line"/>
      <point x="193" y="506" type="line"/>
      <point x="68" y="506" type="line"/>
      <point x="68" y="568" type="line"/>
      <point x="0" y="568" type="line"/>
      <point x="0" y="500" type="line"/>
      <point x="63" y="500" type="line"/>
      <point x="63" y="438" type="line"/>
      <point x="188" y="438" type="line"/>
      <point x="188" y="375" type="line"/>
      <point x="250" y="375" type="line"/>
      <point x="250" y="193" type="line"/>
      <point x="188" y="193" type="line"/>
      <point x="188" y="131" type="line"/>
      <point x="63" y="131" type="line"/>
      <point x="63" y="68" type="line"/>
      <point x="0" y="68" type="line"/>
      <point x="0" y="0" type="line"/>
      <point x="68" y="0" type="line"/>
      <point x="68" y="63" type="line"/>
      <point x="193" y="63" type="line"/>
      <point x="193" y="125" type="line"/>
      <point x="256" y="125" type="line"/>
      <point x="256" y="188" type="line"/>
    </contour>
  </outline>
</glyph>
<glyph name="asciitilde" format="1">
  <advance width="1063"/>
  <unicode hex="007E"/>
  <outline>
    <contour>
      <point x="943" y="0" type="line"/>
      <point x="943" y="68" type="line"/>
      <point x="881" y="68" type="line"/>
      <point x="881" y="131" type="line"/>
      <point x="818" y="131" type="line"/>
      <point x="818" y="313" type="line"/>
      <point x="881" y="313" type="line"/>
      <point x="881" y="375" type="line"/>
      <point x="943" y="375" type="line"/>
      <point x="943" y="443" type="line"/>
      <point x="875" y="443" type="line"/>
      <point x="875" y="381" type="line"/>
      <point x="813" y="381" type="line"/>
      <point x="813" y="318" type="line"/>
      <point x="750" y="318" type="line"/>
      <point x="750" y="256" type="line"/>
      <point x="631" y="256" type="line"/>
      <point x="631" y="313" type="line"/>
      <point x="693" y="313" type="line"/>
      <point x="693" y="375" type="line"/>
      <point x="756" y="375" type="line"/>
      <point x="756" y="443" type="line"/>
      <point x="688" y="443" type="line"/>
      <point x="688" y="381" type="line"/>
      <point x="625" y="381" type="line"/>
      <point x="625" y="318" type="line"/>
      <point x="563" y="318" type="line"/>
      <point x="563" y="256" type="line"/>
      <point x="443" y="256" type="line"/>
      <point x="443" y="313" type="line"/>
      <point x="506" y="313" type="line"/>
      <point x="506" y="375" type="line"/>
      <point x="568" y="375" type="line"/>
      <point x="568" y="443" type="line"/>
      <point x="500" y="443" type="line"/>
      <point x="500" y="381" type="line"/>
      <point x="438" y="381" type="line"/>
      <point x="438" y="318" type="line"/>
      <point x="375" y="318" type="line"/>
      <point x="375" y="256" type="line"/>
      <point x="256" y="256" type="line"/>
      <point x="256" y="443" type="line"/>
      <point x="188" y="443" type="line"/>
      <point x="188" y="381" type="line"/>
      <point x="125" y="381" type="line"/>
      <point x="125" y="318" type="line"/>
      <point x="63" y="318" type="line"/>
      <point x="63" y="256" type="line"/>
      <point x="0" y="256" type="line"/>
      <point x="0" y="188" type="line"/>
      <point x="63" y="188" type="line"/>
      <point x="63" y="125" type="line"/>
      <point x="125" y="125" type="line"/>
      <point x="125" y="63" type="line"/>
      <point x="188" y="63" type="line"/>
      <point x="188" y="0" type="line"/>
      <point x="256" y="0" type="line"/>
      <point x="256" y="188" type="line"/>
      <point x="375" y="188" type="line"/>
      <point x="375" y="125" type="line"/>
      <point x="438" y="125" type="line"/>
      <point x="438" y="63" type="line"/>
      <point x="500" y="63" type="line"/>
      <point x="500" y="0" type="line"/>
      <point x="568" y="0" type="line"/>
      <point x="568" y="68" type="line"/>
      <point x="506" y="68" type="line"/>
      <point x="506" y="131" type="line"/>
      <point x="443" y="131" type="line"/>
      <point x="443" y="188" type="line"/>
      <point x="563" y="188" type="line"/>
      <point x="563" y="125" type="line"/>
      <point x="625" y="125" type="line"/>
      <point x="625" y="63" type="line"/>
      <point x="688" y="63" type="line"/>
      <point x="688" y="0" type="line"/>
      <point x="756" y="0" type="line"/>
      <point x="756" y="68" type="line"/>
      <point x="693" y="68" type="line"/>
      <point x="693" y="131" type="line"/>
      <point x="631" y="131" type="line"/>
      <point x="631" y="188" type="line"/>
      <point x="750" y="188" type="line"/>
      <point x="750" y="125" type="line"/>
      <point x="813" y="125" type="line"/>
      <point x="813" y="63" type="line"/>
      <point x="875" y="63" type="line"/>
      <point x="875" y="0" type="line"/>
    </contour>
  </outline>
</glyph>
<glyph name="exclamdown" format="1">
  <advance width="501"/>
  <unicode hex="00A1"/>
  <outline>
    <contour>
      <point x="381" y="0" type="line"/>
      <point x="381" y="693" type="line"/>
      <point x="313" y="693" type="line"/>
      <point x="313" y="631" type="line"/>
      <point x="250" y="631" type="line"/>
      <point x="250" y="568" type="line"/>
      <point x="188" y="568" type="line"/>
      <point x="188" y="506" type="line"/>
      <point x="125" y="506" type="line"/>
      <point x="125" y="443" type="line"/>
      <point x="63" y="443" type="line"/>
      <point x="63" y="381" type="line"/>
      <point x="0" y="381" type="line"/>
      <point x="0" y="313" type="line"/>
      <point x="63" y="313" type="line"/>
      <point x="63" y="250" type="line"/>
      <point x="125" y="250" type="line"/>
      <point x="125" y="188" type="line"/>
      <point x="188" y="188" type="line"/>
      <point x="188" y="125" type="line"/>
      <point x="250" y="125" type="line"/>
      <point x="250" y="63" type="line"/>
      <point x="313" y="63" type="line"/>
      <point x="313" y="0" type="line"/>
    </contour>
  </outline>
</glyph>
<glyph name="cent" format="1">
  <advance width="1006"/>
  <unicode hex="00A2"/>
  <outline>
    <contour>
      <point x="1006" y="688" type="line"/>
      <point x="1006" y="818" type="line"/>
      <point x="0" y="818" type="line"/>
      <point x="0" y="688" type="line"/>
    </contour>
    <contour>
      <point x="1006" y="438" type="line"/>
      <point x="1006" y="568" type="line"/>
      <point x="0" y="568" type="line"/>
      <point x="0" y="438" type="line"/>
    </contour>
    <contour>
      <point x="1006" y="188" type="line"/>
      <point x="1006" y="318" type="line"/>
      <point x="0" y="318" type="line"/>
      <point x="0" y="188" type="line"/>
    </contour>
    <contour>
      <point x="1006" y="-62" type="line"/>
      <point x="1006" y="68" type="line"/>
      <point x="0" y="68" type="line"/>
      <point x="0" y="-62" type="line"/>
    </contour>
  </outline>
</glyph>
<glyph name="sterling" format="1">
  <advance width="1006"/>
  <unicode hex="00A3"/>
  <outline>
    <contour>
      <point x="1006" y="563" type="line"/>
      <point x="1006" y="818" type="line"/>
      <point x="0" y="818" type="line"/>
      <point x="0" y="563" type="line"/>
    </contour>
    <contour>
      <point x="1006" y="63" type="line"/>
      <point x="1006" y="318" type="line"/>
      <point x="0" y="318" type="line"/>
      <point x="0" y="63" type="line"/>
    </contour>
  </outline>
</glyph>
<glyph name="currency" format="1">
  <advance width="1001"/>
  <unicode hex="00A4"/>
  <outline>
    <contour>
      <point x="881" y="0" type="line"/>
      <point x="881" y="443" type="line"/>
      <point x="818" y="443" type="line"/>
      <point x="818" y="506" type="line"/>
      <point x="756" y="506" type="line"/>
      <point x="756" y="568" type="line"/>
      <point x="693" y="568" type="line"/>
      <point x="693" y="631" type="line"/>
      <point x="0" y="631" type="line"/>
      <point x="0" y="0" type="line"/>
    </contour>
    <contour>
      <point x="813" y="68" type="line"/>
      <point x="68" y="68" type="line"/>
      <point x="68" y="563" type="line"/>
      <point x="625" y="563" type="line"/>
      <point x="625" y="375" type="line"/>
      <point x="813" y="375" type="line"/>
    </contour>
  </outline>
</glyph>
<glyph name="yen" format="1">
  <advance width="693"/>
  <unicode hex="00A5"/>
  <outline>
    <contour>
      <point x="693" y="125" type="line"/>
      <point x="693" y="193" type="line"/>
      <point x="568" y="193" type="line"/>
      <point x="568" y="375" type="line"/>
      <point x="693" y="375" type="line"/>
      <point x="693" y="443" type="line"/>
      <point x="568" y="443" type="line"/>
      <point x="568" y="506" type="line"/>
      <point x="506" y="506" type="line"/>
      <point x="506" y="568" type="line"/>
      <point x="188" y="568" type="line"/>
      <point x="188" y="506" type="line"/>
      <point x="125" y="506" type="line"/>
      <point x="125" y="443" type="line"/>
      <point x="0" y="443" type="line"/>
      <point x="0" y="375" type="line"/>
      <point x="125" y="375" type="line"/>
      <point x="125" y="193" type="line"/>
      <point x="0" y="193" type="line"/>
      <point x="0" y="125" type="line"/>
      <point x="125" y="125" type="line"/>
      <point x="125" y="63" type="line"/>
      <point x="188" y="63" type="line"/>
      <point x="188" y="0" type="line"/>
      <point x="506" y="0" type="line"/>
      <point x="506" y="63" type="line"/>
      <point x="568" y="63" type="line"/>
      <point x="568" y="125" type="line"/>
    </contour>
    <contour>
      <point x="500" y="68" type="line"/>
      <point x="193" y="68" type="line"/>
      <point x="193" y="500" type="line"/>
      <point x="500" y="500" type="line"/>
    </contour>
    <contour>
      <point x="443" y="250" type="line"/>
      <point x="443" y="318" type="line"/>
      <point x="381" y="318" type="line"/>
      <point x="381" y="443" type="line"/>
      <point x="313" y="443" type="line"/>
      <point x="313" y="318" type="line"/>
      <point x="250" y="318" type="line"/>
      <point x="250" y="250" type="line"/>
      <point x="313" y="250" type="line"/>
      <point x="313" y="125" type="line"/>
      <point x="381" y="125" type="line"/>
      <point x="381" y="250" type="line"/>
    </contour>
  </outline>
</glyph>
<glyph name="section" format="1">
  <advance width="1006"/>
  <unicode hex="00A7"/>
  <outline>
    <contour>
      <point x="1006" y="750" type="line"/>
      <point x="1006" y="818" type="line"/>
      <point x="0" y="818" type="line"/>
      <point x="0" y="750" type="line"/>
    </contour>
    <contour>
      <point x="1006" y="500" type="line"/>
      <point x="1006" y="631" type="line"/>
      <point x="0" y="631" type="line"/>
      <point x="0" y="500" type="line"/>
    </contour>
    <contour>
      <point x="1006" y="188" type="line"/>
      <point x="1006" y="381" type="line"/>
      <point x="0" y="381" type="line"/>
      <point x="0" y="188" type="line"/>
    </contour>
    <contour>
      <point x="1006" y="-187" type="line"/>
      <point x="1006" y="68" type="line"/>
      <point x="0" y="68" type="line"/>
      <point x="0" y="-187" type="line"/>
    </contour>
  </outline>
</glyph>
<glyph name="dieresis" format="1">
  <advance width="1006"/>
  <unicode hex="00A8"/>
  <outline>
    <contour>
      <point x="1006" y="188" type="line"/>
      <point x="1006" y="506" type="line"/>
      <point x="943" y="506" type="line"/>
      <point x="943" y="568" type="line"/>
      <point x="881" y="568" type="line"/>
      <point x="881" y="631" type="line"/>
      <point x="818" y="631" type="line"/>
      <point x="818" y="693" type="line"/>
      <point x="756" y="693" type="line"/>
      <point x="756" y="756" type="line"/>
      <point x="693" y="756" type="line"/>
      <point x="693" y="818" type="line"/>
      <point x="375" y="818" type="line"/>
      <point x="375" y="750" type="line"/>
      <point x="438" y="750" type="line"/>
      <point x="438" y="688" type="line"/>
      <point x="500" y="688" type="line"/>
      <point x="500" y="625" type="line"/>
      <point x="563" y="625" type="line"/>
      <point x="563" y="563" type="line"/>
      <point x="625" y="563" type="line"/>
      <point x="625" y="500" type="line"/>
      <point x="688" y="500" type="line"/>
      <point x="688" y="438" type="line"/>
      <point x="750" y="438" type="line"/>
      <point x="750" y="375" type="line"/>
      <point x="813" y="375" type="line"/>
      <point x="813" y="313" type="line"/>
      <point x="875" y="313" type="line"/>
      <point x="875" y="250" type="line"/>
      <point x="938" y="250" type="line"/>
      <point x="938" y="188" type="line"/>
    </contour>
    <contour>
      <point x="1006" y="-187" type="line"/>
      <point x="1006" y="6" type="line"/>
      <point x="943" y="6" type="line"/>
      <point x="943" y="68" type="line"/>
      <point x="881" y="68" type="line"/>
      <point x="881" y="131" type="line"/>
      <point x="818" y="131" type="line"/>
      <point x="818" y="193" type="line"/>
      <point x="756" y="193" type="line"/>
      <point x="756" y="256" type="line"/>
      <point x="693" y="256" type="line"/>
      <point x="693" y="318" type="line"/>
      <point x="631" y="318" type="line"/>
      <point x="631" y="381" type="line"/>
      <point x="568" y="381" type="line"/>
      <point x="568" y="443" type="line"/>
      <point x="506" y="443" type="line"/>
      <point x="506" y="506" type="line"/>
      <point x="443" y="506" type="line"/>
      <point x="443" y="568" type="line"/>
      <point x="381" y="568" type="line"/>
      <point x="381" y="631" type="line"/>
      <point x="318" y="631" type="line"/>
      <point x="318" y="693" type="line"/>
      <point x="256" y="693" type="line"/>
      <point x="256" y="756" type="line"/>
      <point x="193" y="756" type="line"/>
      <point x="193" y="818" type="line"/>
      <point x="0" y="818" type="line"/>
      <point x="0" y="625" type="line"/>
      <point x="63" y="625" type="line"/>
      <point x="63" y="563" type="line"/>
      <point x="125" y="563" type="line"/>
      <point x="125" y="500" type="line"/>
      <point x="188" y="500" type="line"/>
      <point x="188" y="438" type="line"/>
      <point x="250" y="438" type="line"/>
      <point x="250" y="375" type="line"/>
      <point x="313" y="375" type="line"/>
      <point x="313" y="313" type="line"/>
      <point x="375" y="313" type="line"/>
      <point x="375" y="250" type="line"/>
      <point x="438" y="250" type="line"/>
      <point x="438" y="188" type="line"/>
      <point x="500" y="188" type="line"/>
      <point x="500" y="125" type="line"/>
      <point x="563" y="125" type="line"/>
      <point x="563" y="63" type="line"/>
      <point x="625" y="63" type="line"/>
      <point x="625" y="0" type="line"/>
      <point x="688" y="0" type="line"/>
      <point x="688" y="-62" type="line"/>
      <point x="750" y="-62" type="line"/>
      <point x="750" y="-125" type="line"/>
      <point x="813" y="-125" type="line"/>
      <point x="813" y="-187" type="line"/>
    </contour>
    <contour>
      <point x="631" y="-187" type="line"/>
      <point x="631" y="-119" type="line"/>
      <point x="568" y="-119" type="line"/>
      <point x="568" y="-57" type="line"/>
      <point x="506" y="-57" type="line"/>
      <point x="506" y="6" type="line"/>
      <point x="443" y="6" type="line"/>
      <point x="443" y="68" type="line"/>
      <point x="381" y="68" type="line"/>
      <point x="381" y="131" type="line"/>
      <point x="318" y="131" type="line"/>
      <point x="318" y="193" type="line"/>
      <point x="256" y="193" type="line"/>
      <point x="256" y="256" type="line"/>
      <point x="193" y="256" type="line"/>
      <point x="193" y="318" type="line"/>
      <point x="131" y="318" type="line"/>
      <point x="131" y="381" type="line"/>
      <point x="68" y="381" type="line"/>
      <point x="68" y="443" type="line"/>
      <point x="0" y="443" type="line"/>
      <point x="0" y="125" type="line"/>
      <point x="63" y="125" type="line"/>
      <point x="63" y="63" type="line"/>
      <point x="125" y="63" type="line"/>
      <point x="125" y="0" type="line"/>
      <point x="188" y="0" type="line"/>
      <point x="188" y="-62" type="line"/>
      <point x="250" y="-62" type="line"/>
      <point x="250" y="-125" type="line"/>
      <point x="313" y="-125" type="line"/>
      <point x="313" y="-187" type="line"/>
    </contour>
  </outline>
</glyph>
<glyph name="ordfeminine" format="1">
  <advance width="1006"/>
  <unicode hex="00AA"/>
  <outline>
    <contour>
      <point x="1006" y="-187" type="line"/>
      <point x="1006" y="818" type="line"/>
      <point x="0" y="818" type="line"/>
      <point x="0" y="-187" type="line"/>
    </contour>
    <contour>
      <point x="813" y="6" type="line"/>
      <point x="193" y="6" type="line"/>
      <point x="193" y="625" type="line"/>
      <point x="813" y="625" type="line"/>
    </contour>
  </outline>
</glyph>
<glyph name="guillemotleft" format="1">
  <advance width="1063"/>
  <unicode hex="00AB"/>
  <outline>
    <contour>
      <point x="943" y="313" type="line"/>
      <point x="943" y="381" type="line"/>
      <point x="881" y="381" type="line"/>
      <point x="881" y="443" type="line"/>
      <point x="818" y="443" type="line"/>
      <point x="818" y="506" type="line"/>
      <point x="631" y="506" type="line"/>
      <point x="631" y="693" type="line"/>
      <point x="568" y="693" type="line"/>
      <point x="568" y="756" type="line"/>
      <point x="506" y="756" type="line"/>
      <point x="506" y="818" type="line"/>
      <point x="438" y="818" type="line"/>
      <point x="438" y="756" type="line"/>
      <point x="375" y="756" type="line"/>
      <point x="375" y="693" type="line"/>
      <point x="313" y="693" type="line"/>
      <point x="313" y="506" type="line"/>
      <point x="125" y="506" type="line"/>
      <point x="125" y="443" type="line"/>
      <point x="63" y="443" type="line"/>
      <point x="63" y="381" type="line"/>
      <point x="0" y="381" type="line"/>
      <point x="0" y="313" type="line"/>
      <point x="63" y="313" type="line"/>
      <point x="63" y="250" type="line"/>
      <point x="125" y="250" type="line"/>
      <point x="125" y="188" type="line"/>
      <point x="313" y="188" type="line"/>
      <point x="313" y="0" type="line"/>
      <point x="375" y="0" type="line"/>
      <point x="375" y="-62" type="line"/>
      <point x="438" y="-62" type="line"/>
      <point x="438" y="-125" type="line"/>
      <point x="506" y="-125" type="line"/>
      <point x="506" y="-62" type="line"/>
      <point x="568" y="-62" type="line"/>
      <point x="568" y="0" type="line"/>
      <point x="631" y="0" type="line"/>
      <point x="631" y="188" type="line"/>
      <point x="818" y="188" type="line"/>
      <point x="818" y="250" type="line"/>
      <point x="881" y="250" type="line"/>
      <point x="881" y="313" type="line"/>
    </contour>
    <contour>
      <point x="625" y="443" type="line"/>
      <point x="568" y="443" type="line"/>
      <point x="568" y="500" type="line"/>
      <point x="625" y="500" type="line"/>
    </contour>
    <contour>
      <point x="563" y="506" type="line"/>
      <point x="500" y="506" type="line"/>
      <point x="500" y="443" type="line"/>
      <point x="443" y="443" type="line"/>
      <point x="443" y="506" type="line"/>
      <point x="381" y="506" type="line"/>
      <point x="381" y="688" type="line"/>
      <point x="443" y="688" type="line"/>
      <point x="443" y="750" type="line"/>
      <point x="500" y="750" type="line"/>
      <point x="500" y="688" type="line"/>
      <point x="563" y="688" type="line"/>
    </contour>
    <contour>
      <point x="875" y="318" type="line"/>
      <point x="813" y="318" type="line"/>
      <point x="813" y="256" type="line"/>
      <point x="631" y="256" type="line"/>
      <point x="631" y="318" type="line"/>
      <point x="568" y="318" type="line"/>
      <point x="568" y="375" type="line"/>
      <point x="631" y="375" type="line"/>
      <point x="631" y="438" type="line"/>
      <point x="813" y="438" type="line"/>
      <point x="813" y="375" type="line"/>
      <point x="875" y="375" type="line"/>
    </contour>
    <contour>
      <point x="563" y="381" type="line"/>
      <point x="506" y="381" type="line"/>
      <point x="506" y="438" type="line"/>
      <point x="563" y="438" type="line"/>
    </contour>
    <contour>
      <point x="375" y="443" type="line"/>
      <point x="318" y="443" type="line"/>
      <point x="318" y="500" type="line"/>
      <point x="375" y="500" type="line"/>
    </contour>
    <contour>
      <point x="438" y="381" type="line"/>
      <point x="381" y="381" type="line"/>
      <point x="381" y="438" type="line"/>
      <point x="438" y="438" type="line"/>
    </contour>
    <contour>
      <point x="500" y="318" type="line"/>
      <point x="443" y="318" type="line"/>
      <point x="443" y="375" type="line"/>
      <point x="500" y="375" type="line"/>
    </contour>
    <contour>
      <point x="563" y="256" type="line"/>
      <point x="506" y="256" type="line"/>
      <point x="506" y="313" type="line"/>
      <point x="563" y="313" type="line"/>
    </contour>
    <contour>
      <point x="625" y="193" type="line"/>
      <point x="568" y="193" type="line"/>
      <point x="568" y="250" type="line"/>
      <point x="625" y="250" type="line"/>
    </contour>
    <contour>
      <point x="438" y="256" type="line"/>
      <point x="381" y="256" type="line"/>
      <point x="381" y="313" type="line"/>
      <point x="438" y="313" type="line"/>
    </contour>
    <contour>
      <point x="375" y="193" type="line"/>
      <point x="318" y="193" type="line"/>
      <point x="318" y="250" type="line"/>
      <point x="375" y="250" type="line"/>
    </contour>
    <contour>
      <point x="563" y="6" type="line"/>
      <point x="500" y="6" type="line"/>
      <point x="500" y="-57" type="line"/>
      <point x="443" y="-57" type="line"/>
      <point x="443" y="6" type="line"/>
      <point x="381" y="6" type="line"/>
      <point x="381" y="188" type="line"/>
      <point x="443" y="188" type="line"/>
      <point x="443" y="250" type="line"/>
      <point x="500" y="250" type="line"/>
      <point x="500" y="188" type="line"/>
      <point x="563" y="188" type="line"/>
    </contour>
    <contour>
      <point x="375" y="318" type="line"/>
      <point x="313" y="318" type="line"/>
      <point x="313" y="256" type="line"/>
      <point x="131" y="256" type="line"/>
      <point x="131" y="318" type="line"/>
      <point x="68" y="318" type="line"/>
      <point x="68" y="375" type="line"/>
      <point x="131" y="375" type="line"/>
      <point x="131" y="438" type="line"/>
      <point x="313" y="438" type="line"/>
      <point x="313" y="375" type="line"/>
      <point x="375" y="375" type="line"/>
    </contour>
  </outline>
</glyph>
<glyph name="logicalnot" format="1">
  <advance width="501"/>
  <unicode hex="00AC"/>
  <outline>
    <contour>
      <point x="381" y="313" type="line"/>
      <point x="381" y="381" type="line"/>
      <point x="318" y="381" type="line"/>
      <point x="318" y="443" type="line"/>
      <point x="256" y="443" type="line"/>
      <point x="256" y="506" type="line"/>
      <point x="193" y="506" type="line"/>
      <point x="193" y="568" type="line"/>
      <point x="131" y="568" type="line"/>
      <point x="131" y="631" type="line"/>
      <point x="68" y="631" type="line"/>
      <point x="68" y="693" type="line"/>
      <point x="0" y="693" type="line"/>
      <point x="0" y="0" type="line"/>
      <point x="68" y="0" type="line"/>
      <point x="68" y="63" type="line"/>
      <point x="131" y="63" type="line"/>
      <point x="131" y="125" type="line"/>
      <point x="193" y="125" type="line"/>
      <point x="193" y="188" type="line"/>
      <point x="256" y="188" type="line"/>
      <point x="256" y="250" type="line"/>
      <point x="318" y="250" type="line"/>
      <point x="318" y="313" type="line"/>
    </contour>
  </outline>
</glyph>
